<?xml version="1.0" encoding="UTF-8" standalone="no"?>
<!-- Created with Inkscape (http://www.inkscape.org/) -->

<svg
   width="200mm"
   height="200mm"
   viewBox="0 0 200 200"
   version="1.1"
   id="svg1"
   xml:space="preserve"
   sodipodi:docname="app_icon.svg"
   inkscape:version="1.4.3 (0d15f75042, 2025-12-25)"
   xmlns:inkscape="http://www.inkscape.org/namespaces/inkscape"
   xmlns:sodipodi="http://sodipodi.sourceforge.net/DTD/sodipodi-0.dtd"
   xmlns="http://www.w3.org/2000/svg"
   xmlns:svg="http://www.w3.org/2000/svg"><sodipodi:namedview
     id="namedview1"
     pagecolor="#ffffff"
     bordercolor="#000000"
     borderopacity="0.25"
     inkscape:showpageshadow="2"
     inkscape:pageopacity="0.0"
     inkscape:pagecheckerboard="0"
     inkscape:deskcolor="#d1d1d1"
     inkscape:document-units="mm"
     inkscape:zoom="0.62519581"
     inkscape:cx="523.83589"
     inkscape:cy="443.86094"
     inkscape:window-width="2520"
     inkscape:window-height="1412"
     inkscape:window-x="0"
     inkscape:window-y="0"
     inkscape:window-maximized="1"
     inkscape:current-layer="layer1" /><defs
     id="defs1" /><g
     inkscape:label="Layer 1"
     inkscape:groupmode="layer"
     id="layer1"
     transform="translate(28.459262,10.282491)"><rect
       style="fill:#fffcf8;fill-opacity:1;stroke-width:0.902999;stroke-dasharray:0.902999;paint-order:stroke markers fill"
       id="rect1"
       width="142.61865"
       height="153.19867"
       x="1.1647907"
       y="7.9151411" /><path
       style="fill:#2d6a4f;fill-opacity:1;stroke-width:1.01522"
       d="m 8.6613344,189.57559 c -6.9492888,-0.53215 -14.6397778,-3.51267 -20.2757384,-7.85804 -8.223209,-6.34016 -13.995579,-15.86384 -16.228848,-26.77554 l -0.614837,-3.00408 V 88.579116 c 0,-68.809564 -0.09776,-64.2205 1.491899,-70.03363 1.955757,-7.151943 5.318406,-12.7805596 10.895553,-18.2376995 5.266444,-5.1531311 12.2268976,-8.7935158 19.31597,-10.1024577 2.4898852,-0.4597338 6.4284028,-0.4878198 68.426555,-0.4878198 62.603662,0 65.899112,0.02405 68.152762,0.4976668 10.57641,2.2225991 19.67786,8.3720343 25.36931,17.1408707 2.75524,4.2449965 4.68291,9.1308125 5.75273,14.5806145 l 0.59097,3.010536 v 63.631919 c 0,71.357784 0.16704,65.231484 -1.96123,71.931224 -3.43334,10.80799 -11.17875,20.0336 -20.97767,24.98657 -4.14476,2.09502 -8.80387,3.42572 -13.95995,3.98714 -2.24165,0.24408 -122.841076,0.33171 -125.9774756,0.0916 z M 79.465646,153.03867 c 8.771422,-0.98784 17.216791,-2.78882 21.282994,-4.53862 2.70658,-1.16473 5.07631,-2.84818 6.05541,-4.30173 1.23542,-1.83407 1.11897,-3.93394 -0.60554,-10.91806 -1.33771,-5.41759 -1.37013,-5.64171 -1.37013,-9.46825 v -3.9193 l 7.59562,-0.10376 c 7.3985,-0.1011 7.65045,-0.12271 9.70916,-0.83422 5.99759,-2.07283 10.0116,-6.53591 11.40627,-12.68243 0.437,-1.92596 0.48253,-3.56938 0.48253,-17.420089 0,-17.117988 0.008,-17.024874 -1.90961,-21.113598 -1.39517,-2.974144 -4.70242,-6.419456 -7.47663,-7.788753 -3.28731,-1.622545 -4.53562,-1.80357 -12.61845,-1.829876 l -7.18889,-0.0234 v -1.51523 c 0,-1.337159 -0.0543,-1.491739 -0.46234,-1.315344 -1.43698,0.621261 -3.58738,1.190379 -5.151799,1.363466 l -1.783324,0.197305 v 37.340333 c 0,35.506296 -0.02313,37.362036 -0.47199,37.781876 -1.965974,1.83914 -11.389431,4.0069 -21.061844,4.84505 -5.751412,0.4984 -18.480402,0.21108 -23.907738,-0.53962 -7.628906,-1.05522 -14.833894,-2.92615 -16.304987,-4.23395 L 34.948755,131.36652 34.790856,99.458525 C 34.651107,71.218531 34.583405,67.346473 34.201921,65.775397 33.953388,64.751851 33.768558,62.872868 33.765383,61.337549 l -0.0055,-2.662709 H 32.10019 c -1.471292,0 -3.534941,-0.405797 -4.680992,-0.920474 -0.351108,-0.157677 -0.396292,3.862503 -0.396292,35.259564 0,39.35417 0.166632,35.27408 -1.776306,43.49394 -0.931698,3.94168 -1.000772,5.20781 -0.360209,6.6027 1.943201,4.23148 9.290712,7.32378 21.932117,9.23037 2.987498,0.45058 4.981299,0.66537 11.247333,1.21168 2.87057,0.25027 17.797032,-0.10822 21.399811,-0.51395 z m 29.122134,-44.62735 c -1.24364,-0.22853 -2.25105,-0.89824 -3.08259,-2.04925 -0.53376,-0.73884 -0.54618,-1.07819 -0.61694,-16.884088 -0.0717,-16.010074 -0.068,-16.139086 0.49434,-17.339918 0.34383,-0.73418 0.98806,-1.498027 1.63862,-1.942836 1.0664,-0.729175 1.09761,-0.733004 5.97842,-0.733004 4.53461,0 4.98785,0.04511 5.98123,0.594702 1.36243,0.753845 2.91668,2.524173 3.64441,4.151098 0.55306,1.236401 0.56451,1.540399 0.55726,14.780734 -0.007,12.015112 -0.0569,13.647922 -0.45211,14.683392 -0.72477,1.89879 -1.71675,2.99847 -3.54323,3.92794 -1.64068,0.83492 -1.82636,0.86621 -5.58415,0.94111 -2.13788,0.0426 -4.39474,-0.0158 -5.01526,-0.12988 z m -31.858836,23.03561 c 4.994188,-0.54215 11.083085,-1.75186 14.559436,-2.89262 l 0.858636,-0.28175 V 91.96773 55.662899 l -1.613302,0.841835 c -4.539613,2.368815 -11.910844,2.583326 -17.289382,0.503141 -1.378281,-0.533058 -1.385244,-0.533005 -2.287857,0.0175 -1.795538,1.095093 -3.970767,1.701368 -6.486202,1.807817 l -2.446101,0.103517 -0.121624,2.804876 c -0.21804,5.028488 -1.325171,7.966115 -4.100908,10.881237 -2.568246,2.697207 -6.368592,4.340132 -10.039418,4.340132 -1.796041,0 -4.659881,-0.707871 -6.0028,-1.483731 -0.658362,-0.38037 -1.241491,-0.691573 -1.295844,-0.691573 -0.05434,0 -0.09882,12.038698 -0.09882,26.75266 v 26.75267 l 1.783318,0.5694 c 3.355681,1.07142 10.440659,2.31472 16.049857,2.81647 3.297387,0.29496 15.030046,0.14811 18.53101,-0.23192 z m -7.488036,-16.48654 c -2.98484,-1.93855 -1.634055,-6.58164 1.914756,-6.58164 1.956594,0 3.290273,1.48545 3.290273,3.66469 0,1.04462 -0.14905,1.42722 -0.875021,2.24608 -0.730357,0.82382 -1.090704,1.00627 -2.179611,1.10359 -0.990982,0.0886 -1.507908,-0.0155 -2.150397,-0.43272 z m -13.730086,-14.0809 c -0.794738,-0.50406 -1.224046,-1.029413 -1.539937,-1.884432 -1.412779,-3.82397 3.327994,-6.968844 6.358713,-4.21817 1.284248,1.165582 1.643392,2.581189 1.057315,4.167521 -0.589031,1.594341 -1.68301,2.402551 -3.428967,2.533281 -1.088581,0.0815 -1.555386,-0.0326 -2.447124,-0.5982 z M 73.990213,88.443724 c -1.975282,-0.469416 -3.080427,-1.841517 -3.080427,-3.824536 0,-2.480087 1.601141,-3.920716 4.167785,-3.749952 1.428957,0.09507 1.639754,0.196002 2.575903,1.233417 0.889736,0.985993 1.019461,1.296443 1.0186,2.437686 -0.002,2.689166 -2.1734,4.499491 -4.681861,3.903385 z M 50.66837,71.625844 c 2.581268,-0.872896 4.866489,-3.376352 5.686027,-6.229029 0.286564,-0.997488 0.390462,-2.785434 0.390462,-6.719342 0,-6.089323 0.09446,-6.454275 1.606574,-6.206282 0.496804,0.08148 1.616608,0.417458 2.488452,0.74662 1.280682,0.48352 1.991155,0.576736 3.698732,0.485289 2.137073,-0.114448 3.515415,-0.61046 6.000575,-2.159374 l 0.980868,-0.611339 2.057378,0.99472 c 3.191542,1.54308 4.985121,1.919112 8.393036,1.759642 3.47626,-0.162666 5.040562,-0.674708 8.221449,-2.691111 l 2.225649,-1.410868 1.856437,0.884524 c 2.703104,1.287932 4.748072,1.589834 6.955201,1.026814 4.5284,-1.155153 6.98656,-4.892178 6.71154,-10.203235 -0.20691,-3.996058 -1.55598,-7.027182 -4.69754,-10.554585 -4.249865,-4.771841 -10.493308,-7.082909 -15.486008,-5.732287 l -1.879959,0.508566 -0.741032,-1.376074 C 84.100734,22.215638 80.742087,18.834177 78.540962,17.49843 72.867513,14.055522 66.06603,13.773519 60.0473,16.731631 c -2.733284,1.343365 -4.958181,3.004065 -6.968735,5.201572 l -1.407158,1.538004 -1.641943,-0.564821 c -7.602889,-2.615344 -15.056213,1.63536 -16.977253,9.682276 l -0.417774,1.749993 -1.484793,0.186764 c -4.59775,0.578311 -7.650783,3.484318 -8.495005,8.085899 -0.535378,2.918167 0.870373,7.008177 3.029849,8.815303 1.502856,1.257644 2.427394,1.693973 4.354936,2.055283 1.970307,0.369325 3.238952,0.199388 5.547497,-0.743094 1.28891,-0.526208 1.858516,-0.632646 2.377756,-0.444316 l 0.682811,0.247659 0.145586,6.138702 c 0.167499,7.06262 0.439533,8.22235 2.478586,10.566695 2.395668,2.754349 5.763791,3.606818 9.39671,2.378294 z"
       id="path1" /></g></svg>
