<?xml version="1.0" encoding="UTF-8" standalone="no"?>
<!-- Created with Inkscape (http://www.inkscape.org/) -->

<svg
   width="270.93335mm"
   height="270.93335mm"
   viewBox="0 0 270.93335 270.93335"
   version="1.1"
   id="svg1"
   xml:space="preserve"
   inkscape:version="1.4.3 (0d15f75042, 2025-12-25)"
   sodipodi:docname="cheers.svg"
   xmlns:inkscape="http://www.inkscape.org/namespaces/inkscape"
   xmlns:sodipodi="http://sodipodi.sourceforge.net/DTD/sodipodi-0.dtd"
   xmlns="http://www.w3.org/2000/svg"
   xmlns:svg="http://www.w3.org/2000/svg"><sodipodi:namedview
     id="namedview1"
     pagecolor="#ffffff"
     bordercolor="#000000"
     borderopacity="0.25"
     inkscape:showpageshadow="2"
     inkscape:pageopacity="0.0"
     inkscape:pagecheckerboard="0"
     inkscape:deskcolor="#d1d1d1"
     inkscape:document-units="mm"
     inkscape:zoom="0.62519578"
     inkscape:cx="762.16125"
     inkscape:cy="591.01486"
     inkscape:window-width="2520"
     inkscape:window-height="1412"
     inkscape:window-x="0"
     inkscape:window-y="0"
     inkscape:window-maximized="1"
     inkscape:current-layer="layer1" /><defs
     id="defs1" /><g
     inkscape:label="Layer 1"
     inkscape:groupmode="layer"
     id="layer1"
     transform="translate(-38.019264,-42.615172)"><rect
       style="fill:#ffffff;fill-opacity:1;stroke-width:1.27432;paint-order:stroke markers fill"
       id="rect2"
       width="255.50502"
       height="149.7355"
       x="44.323277"
       y="125.43972" /><rect
       style="fill:#e9c46a;fill-opacity:1;stroke-width:1.1319;paint-order:stroke markers fill"
       id="rect1"
       width="69.581024"
       height="53.471256"
       x="144.98415"
       y="71.840469" /><rect
       style="fill:#4d908e;fill-opacity:1;stroke-width:0.424955;paint-order:stroke markers fill"
       id="rect1-2"
       width="30.152178"
       height="17.392628"
       x="158.3985"
       y="130.61459" /><path
       style="fill:#2d6a4f;fill-opacity:1;stroke-width:1.92612"
       d="m 38.019264,313.33782 0.132898,-270.722648 270.670468,0.04734 0.12997,270.885998 z m 99.261106,-49.80469 c 2.89147,-1.47607 3.86804,-3.83913 4.55165,-11.01395 0.48394,-5.07919 1.1956,-7.69312 7.1478,-26.25373 3.6357,-11.3371 8.21098,-25.65973 10.16731,-31.82808 l 3.55693,-11.2152 -3.38003,-0.62596 c -1.85904,-0.34429 -3.53843,-0.45899 -3.73198,-0.25489 -0.19357,0.20408 -2.45416,6.90901 -5.02354,14.89984 -2.56938,7.99082 -6.23135,19.34619 -8.13771,25.23417 -1.90636,5.88796 -4.55203,14.10546 -5.87926,18.26111 -2.85144,8.92797 -2.67335,8.77608 -9.67503,8.25231 -9.0874,-0.67979 -17.95914,-2.85279 -28.274839,-6.92548 -9.479214,-3.74247 -18.328424,-9.09844 -18.762968,-11.35627 -0.09597,-0.49868 1.086982,-4.84882 2.628792,-9.667 2.338961,-7.30927 4.832069,-15.24297 14.168977,-45.08926 0.286278,-0.91513 1.038251,-3.9687 1.671051,-6.78572 l 1.150544,-5.12187 -2.083932,-1.05693 c -1.146161,-0.58132 -2.26023,-1.31285 -2.475705,-1.62568 -0.275359,-0.39974 -0.578125,-0.33853 -1.018912,0.20601 -0.889214,1.09851 -2.519545,0.90203 -7.819999,-0.9424 -8.579424,-2.98547 -14.518487,-2.01616 -19.660622,3.20881 -2.739166,2.78328 -3.130846,3.71786 -8.553308,20.40877 -4.144921,12.75852 -4.534973,15.00568 -3.384553,19.49907 1.757151,6.86322 4.592174,9.46087 13.554802,12.4199 3.512655,1.15972 6.540622,2.25203 6.728813,2.42736 0.665601,0.62013 -1.999375,7.52277 -4.845355,12.55012 -3.050684,5.38897 -3.477788,7.33349 -2.161737,9.84202 1.778441,3.3899 9.851578,9.1476 18.524286,13.21139 9.249354,4.33397 25.543325,9.08667 35.383875,10.32094 6.05252,0.75913 13.09295,0.3181 15.63465,-0.9794 z M 71.346213,205.64416 c -4.529749,-1.52672 -6.368639,-3.40332 -6.368758,-6.49937 -1.12e-4,-2.90278 7.287941,-25.39469 8.797756,-27.15107 1.659222,-1.93019 4.46666,-2.15828 8.988482,-0.73026 4.558397,1.43958 5.87692,2.85419 5.467548,5.86604 -0.154291,1.13511 -2.140042,7.78774 -4.41279,14.78365 -5.26759,16.21453 -5.22919,16.17223 -12.472238,13.73101 z m 160.986907,57.84533 c 18.53686,-3.57952 38.3481,-12.39339 45.81746,-20.38384 2.38216,-2.54833 2.44021,-2.68604 2.21383,-5.25138 -0.18081,-2.04914 -0.87116,-3.70366 -3.10719,-7.44722 -2.99052,-5.00672 -5.36399,-11.05059 -4.60536,-11.7272 0.24128,-0.21522 3.07,-1.28057 6.28608,-2.36747 8.24644,-2.78698 11.53437,-5.6203 13.47337,-11.61049 1.53272,-4.73507 1.16996,-6.83363 -3.82199,-22.11037 -4.93805,-15.11176 -6.44415,-18.21493 -10.04952,-20.70623 -5.33122,-3.68387 -9.8024,-3.97347 -18.12925,-1.17422 -3.05117,1.02575 -5.8347,1.86497 -6.18561,1.86497 -0.3509,0 -0.7779,-0.55771 -0.94889,-1.23937 l -0.31085,-1.23937 -2.52282,1.69881 c -1.38753,0.93434 -2.80267,1.79216 -3.14471,1.90624 -0.71107,0.23718 -0.18138,2.01484 9.2331,30.9899 8.58514,26.42241 11.21049,34.87772 11.21049,36.10497 0,2.1342 -10.53758,8.30185 -20.633,12.07649 -10.67874,3.99276 -26.16533,6.90903 -31.57879,5.94657 l -2.03031,-0.36097 -1.87073,-5.34528 c -1.02889,-2.93991 -4.64559,-13.94783 -8.03709,-24.46206 -6.68216,-20.71578 -8.83386,-27.00253 -10.992,-32.11622 -0.76916,-1.82247 -1.44407,-3.36755 -1.49982,-3.4335 -0.0861,-0.10193 -5.91499,0.96801 -6.2668,1.15027 -0.067,0.0347 1.46196,4.97864 3.39771,10.98648 1.93574,6.00782 5.39039,16.77306 7.67697,23.92275 2.28657,7.14968 5.28216,16.44043 6.65685,20.64612 1.86087,5.69305 2.69565,9.26373 3.26737,13.97573 0.43128,3.55449 1.10653,6.84614 1.54035,7.50867 0.93903,1.43404 3.17541,2.64174 6.02371,3.25294 3.13211,0.67208 12.77315,0.13467 18.93744,-1.05572 z m 36.90456,-57.31382 c -1.12399,-0.6117 -1.91874,-2.54879 -5.71386,-13.92648 -5.30548,-15.90582 -5.48697,-16.78089 -3.85759,-18.59809 1.38053,-1.53963 6.73907,-3.42834 9.72673,-3.42834 3.53492,0 4.34045,1.34904 8.72373,14.60973 4.57802,13.84983 4.79917,15.67847 2.20957,18.26971 -1.12049,1.12121 -2.83457,2.03776 -5.14822,2.75282 -4.03984,1.24857 -4.21764,1.25815 -5.94036,0.32065 z M 133.47362,235.3473 c 3.32177,-10.46308 17.36779,-53.7248 17.85893,-55.00554 0.27588,-0.71937 -0.17716,-0.83066 -3.40817,-0.83718 -4.23816,-0.008 -7.98867,-1.20258 -11.88103,-3.78241 -2.07744,-1.3769 -2.94689,-1.63002 -5.80512,-1.68998 -1.84894,-0.0387 -3.98488,-0.24661 -4.74652,-0.46183 -1.30339,-0.36829 -1.45734,-0.2272 -2.61846,2.39997 -1.54864,3.504 -4.55468,6.87728 -7.20478,8.085 -2.53138,1.1536 -7.25887,1.23089 -9.82341,0.16049 -1.04175,-0.43477 -2.63574,-1.50874 -3.5422,-2.3866 -0.90645,-0.87786 -1.74547,-1.49709 -1.86449,-1.37608 -0.481607,0.48976 -15.592025,47.63021 -15.592025,48.64295 0,1.71223 12.400918,8.19307 20.887715,10.91609 8.59219,2.75684 16.73388,4.41526 22.45473,4.57389 l 2.33119,0.0645 z m 96.56784,7.68842 c 6.50596,-1.2499 17.59244,-4.8754 22.55397,-7.37556 5.67111,-2.85775 10.05125,-5.79066 10.05125,-6.73023 0,-0.46519 -1.04865,-4.0577 -2.33032,-7.98336 -6.92924,-21.22347 -10.21568,-31.33667 -13.99858,-43.07709 -2.30371,-7.14968 -4.2385,-13.06161 -4.29954,-13.13764 -0.061,-0.0759 -1.46256,0.74909 -3.11448,1.83357 -4.13599,2.71521 -6.93712,3.7055 -11.40957,4.03368 -3.39004,0.24874 -4.02887,0.46635 -5.66479,1.92962 -1.01415,0.90708 -2.69858,1.93149 -3.74319,2.27647 -1.76909,0.58422 -1.87844,0.73698 -1.59478,2.2281 1.37327,7.21882 0.79907,11.20354 -2.10336,14.59653 -2.62997,3.07447 -5.29826,4.29534 -9.43735,4.31804 -1.89134,0.01 -3.43881,0.15914 -3.43881,0.33051 0,0.17148 1.28038,4.30064 2.84532,9.17606 1.56491,4.87542 4.67928,14.59944 6.92078,21.60894 5.20896,16.28913 5.4715,16.98795 6.46845,17.21685 1.49789,0.34392 6.84345,-0.19715 12.295,-1.24449 z m -22.5766,-51.43343 c 2.20784,-0.83292 4.70757,-3.54169 5.30001,-5.74328 0.63106,-2.34504 0.27977,-4.81655 -1.37759,-9.69252 -1.65139,-4.85837 -1.63677,-4.92416 1.09431,-4.92416 2.90976,0 5.61906,-1.11828 7.78191,-3.21199 1.63256,-1.58037 1.82212,-1.63095 6.11348,-1.63095 3.83152,0 4.82502,-0.19474 7.36813,-1.44431 1.74983,-0.85981 3.7078,-2.36409 4.83791,-3.71692 1.88147,-2.25227 1.92122,-2.26987 4.44765,-1.96883 3.17963,0.37887 6.53272,-1.16365 8.32602,-3.83023 1.03134,-1.53359 1.16562,-2.22896 0.95596,-4.95006 -0.41385,-5.37048 -4.068,-10.06015 -9.98309,-12.81206 -3.87587,-1.80319 -8.93537,-1.87724 -12.37632,-0.18112 l -2.38079,1.17352 -2.24266,-1.71294 c -4.96108,-3.7893 -12.92775,-4.5232 -18.78771,-1.73073 -3.23718,1.54262 -6.92838,5.20456 -8.61173,8.54348 -0.62084,1.23145 -1.17727,2.29655 -1.23648,2.36691 -0.0593,0.0703 -1.23465,0.25245 -2.61203,0.40459 -3.87533,0.42815 -5.47169,1.10794 -7.44714,3.17135 -2.59785,2.71347 -3.46583,4.74575 -3.65892,8.56689 -0.15674,3.10169 -0.27795,3.40545 -1.64138,4.11326 -3.39501,1.76248 -4.78588,4.03558 -4.78588,7.82164 0,3.33799 0.92368,5.48944 3.2247,7.51105 3.188,2.80088 7.57257,2.73107 11.02466,-0.17554 1.82314,-1.53506 2.80062,-1.34167 3.30095,0.65307 0.19794,0.78917 1.03297,3.18132 1.85563,5.31589 2.56862,6.6649 7.00779,9.78262 11.5104,8.08399 z m -92.85459,-11.89858 c 2.44096,-1.43142 3.8517,-3.7418 5.38276,-8.81537 1.41152,-4.67744 1.89143,-5.08618 4.07729,-3.47247 2.51346,1.85556 4.86171,2.46714 8.15174,2.12305 2.75084,-0.28772 2.97737,-0.22271 4.38165,1.25732 3.33111,3.51076 9.45443,5.24522 14.44518,4.09164 2.17778,-0.50338 2.33983,-0.45674 4.17414,1.2015 3.46125,3.12902 8.07368,3.51592 11.13966,0.93441 4.23642,-3.56697 4.9628,-10.43776 1.82789,-17.28968 -2.19862,-4.80548 -7.38145,-8.84478 -11.3835,-8.87186 -1.28833,-0.01 -1.65572,-0.22804 -1.65572,-0.98849 0,-1.38789 -1.75858,-5.3149 -3.54094,-7.90713 -1.94486,-2.82855 -6.1463,-5.61356 -10.14806,-6.72687 -2.71287,-0.75472 -3.61168,-0.78992 -6.57172,-0.25736 -1.88596,0.33932 -4.64443,1.20371 -6.12993,1.9209 l -2.70091,1.30396 -1.8842,-1.23805 c -5.1972,-3.4149 -10.01091,-3.22761 -14.81061,0.57625 -1.03578,0.82088 -2.20058,2.08584 -2.58844,2.81103 -0.63577,1.18871 -1.00018,1.31851 -3.70116,1.31851 -3.394342,0 -5.30307,0.8058 -7.171265,3.02744 -1.793737,2.13308 -2.56569,4.77556 -2.168789,7.42397 0.671591,4.48133 4.044549,7.39094 8.567934,7.39094 1.63242,0 2.53534,0.23854 2.71937,0.71842 0.15151,0.39511 -0.33023,2.63179 -1.07056,4.97038 -1.97038,6.22405 -2.0998,8.36421 -0.67301,11.12986 2.32463,4.50601 7.01359,5.8996 11.3312,3.3677 z m 52.1113,-34.56465 c -3.6927,-6.26787 -5.37593,-7.56407 -7.20149,-5.54558 -0.71657,0.7923 -0.77288,1.18443 -0.29766,2.07293 0.607,1.13492 8.12632,6.32548 8.5497,5.90183 0.13171,-0.13179 -0.34106,-1.2249 -1.05055,-2.42918 z m 18.35272,-1.02704 c 2.4075,-1.62457 3.34129,-2.98318 2.879,-4.1887 -0.48267,-1.2586 -2.62836,-1.56973 -3.75974,-0.5452 -1.01114,0.91565 -5.09774,7.41234 -5.09774,8.10415 0,0.40968 2.28948,-0.88098 5.97848,-3.37025 z m -10.09658,-2.88246 c 1.65301,-7.04536 1.35856,-8.73062 -1.52544,-8.73062 -2.36125,0 -2.76333,1.06025 -2.0771,5.47709 0.70277,4.52325 1.60433,7.77723 2.15481,7.77723 0.2125,0 0.86398,-2.03565 1.44773,-4.5237 z m -0.0805,-21.64818 c 3.90627,-3.63514 35.84742,-35.812348 36.37416,-36.642962 1.00994,-1.59261 0.35855,-3.109244 -2.70786,-6.304623 -5.17645,-5.394187 -3.88806,-6.122383 -22.28285,12.594179 l -15.59091,15.863646 -5.85874,-5.966409 c -5.71216,-5.817112 -7.74099,-7.408746 -9.44374,-7.408746 -0.45848,0 -2.3039,1.412775 -4.10096,3.139493 -5.13498,4.933994 -5.18291,4.798372 5.52075,15.620902 9.53239,9.63823 12.11605,11.82647 13.96356,11.82647 0.7473,0 2.30754,-1.02914 4.12659,-2.72195 z"
       id="path1"
       sodipodi:nodetypes="cccccsssccssssssssssscssssssssssssssssssssscssssssssssscsssssscssscssssssscsssssssscscscssscsssscccssscscsssssscsssssssssssssssssscssscssssssssssssssssssscssssscsssssssssssssssssssssssssssssscssssss" /></g></svg>
