<?xml version="1.0" encoding="UTF-8" standalone="no"?>
<!-- Created with Inkscape (http://www.inkscape.org/) -->

<svg
   width="270.93335mm"
   height="270.93335mm"
   viewBox="0 0 270.93335 270.93335"
   version="1.1"
   id="svg1"
   xml:space="preserve"
   inkscape:version="1.4.3 (0d15f75042, 2025-12-25)"
   sodipodi:docname="cheers.svg"
   xmlns:inkscape="http://www.inkscape.org/namespaces/inkscape"
   xmlns:sodipodi="http://sodipodi.sourceforge.net/DTD/sodipodi-0.dtd"
   xmlns="http://www.w3.org/2000/svg"
   xmlns:svg="http://www.w3.org/2000/svg"><sodipodi:namedview
     id="namedview1"
     pagecolor="#ffffff"
     bordercolor="#000000"
     borderopacity="0.25"
     inkscape:showpageshadow="2"
     inkscape:pageopacity="0.0"
     inkscape:pagecheckerboard="0"
     inkscape:deskcolor="#d1d1d1"
     inkscape:document-units="mm"
     inkscape:zoom="0.57877318"
     inkscape:cx="555.48531"
     inkscape:cy="517.47388"
     inkscape:window-width="2560"
     inkscape:window-height="1412"
     inkscape:window-x="0"
     inkscape:window-y="0"
     inkscape:window-maximized="1"
     inkscape:current-layer="layer1" /><defs
     id="defs1" /><g
     inkscape:label="Layer 1"
     inkscape:groupmode="layer"
     id="layer1"
     transform="translate(-38.019264,-42.615172)"><rect
       style="fill:#2d6a4f;fill-opacity:1;stroke-width:0.902999;paint-order:stroke markers fill"
       id="rect3"
       width="270.93332"
       height="270.93332"
       x="38.019279"
       y="42.615189" /><g
       id="g1"
       transform="translate(0,-15.875004)"><rect
         style="fill:#ffffff;fill-opacity:1;stroke-width:0.93334;paint-order:stroke markers fill"
         id="rect2"
         width="187.13744"
         height="109.66954"
         x="78.884384"
         y="139.52562" /><rect
         style="fill:#4d908e;fill-opacity:1;stroke-width:0.311246;paint-order:stroke markers fill"
         id="rect1-2"
         width="22.08411"
         height="12.738739"
         x="162.43556"
         y="143.3158" /><path
         style="fill:#2d6a4f;fill-opacity:1;stroke-width:1.41074"
         d="m 74.26722,277.50493 0.0973,-198.283093 198.24494,0.0347 0.0952,198.402723 z m 72.70099,-36.47804 c 2.11778,-1.08111 2.83304,-2.81186 3.33373,-8.06686 0.35445,-3.72011 0.87568,-5.6346 5.2352,-19.2288 2.66288,-8.30354 6.01391,-18.79375 7.44677,-23.31158 l 2.60516,-8.21426 -2.4756,-0.45847 c -1.3616,-0.25216 -2.59162,-0.33617 -2.73338,-0.18668 -0.14178,0.14948 -1.79749,5.06031 -3.67935,10.91296 -1.88188,5.85265 -4.56398,14.16958 -5.96024,18.48206 -1.39626,4.31247 -3.33401,10.33115 -4.3061,13.37483 -2.08846,6.53904 -1.95802,6.4278 -7.0862,6.04418 -6.65581,-0.49789 -13.15367,-2.08945 -20.7091,-5.07238 -6.94279,-2.74106 -13.42415,-6.66389 -13.74242,-8.31758 -0.0703,-0.36524 0.79613,-3.55137 1.92539,-7.08032 1.71311,-5.35346 3.53911,-11.16428 10.37766,-33.02435 0.20968,-0.67026 0.76045,-2.90676 1.22393,-4.97001 l 0.84267,-3.75137 -1.52631,-0.77412 c -0.83947,-0.42577 -1.65544,-0.96156 -1.81326,-1.19068 -0.20168,-0.29278 -0.42344,-0.24794 -0.74627,0.15089 -0.65129,0.80457 -1.84538,0.66066 -5.72755,-0.69024 -6.28375,-2.18662 -10.63366,-1.47668 -14.39987,2.3502 -2.00622,2.03854 -2.2931,2.72304 -6.26463,14.94783 -3.03583,9.34461 -3.3215,10.99049 -2.47891,14.28155 1.28697,5.02676 3.36341,6.92934 9.92783,9.0966 2.57274,0.8494 4.7905,1.64943 4.92833,1.77785 0.4875,0.4542 -1.46439,5.50984 -3.54885,9.19198 -2.23439,3.947 -2.54721,5.37121 -1.5833,7.20851 1.30257,2.48284 7.21551,6.69991 13.56759,9.67631 6.77443,3.17429 18.70849,6.65527 25.91593,7.55928 4.433,0.55601 9.58956,0.23298 11.45115,-0.71733 z M 98.6766,198.62775 c -3.31769,-1.11821 -4.66454,-2.49267 -4.66463,-4.76028 -7e-5,-2.12606 5.33786,-18.59963 6.44367,-19.88604 1.21526,-1.41372 3.27149,-1.58077 6.58337,-0.53486 3.33867,1.05438 4.30439,2.09047 4.00455,4.29641 -0.113,0.83138 -1.56741,5.70392 -3.23202,10.82788 -3.85811,11.87587 -3.82998,11.84489 -9.13494,10.05689 z m 117.91031,42.36717 c 13.5768,-2.62171 28.08699,-9.07719 33.55771,-14.92957 1.74475,-1.86644 1.78727,-1.96731 1.62145,-3.84622 -0.13242,-1.50084 -0.63805,-2.71264 -2.27576,-5.45451 -2.19033,-3.66702 -3.92871,-8.09369 -3.37307,-8.58925 0.17672,-0.15764 2.24853,-0.93791 4.60406,-1.73399 6.03988,-2.04124 8.44803,-4.11643 9.86819,-8.50377 1.1226,-3.46807 0.85691,-5.0051 -2.79931,-16.19412 -3.61673,-11.06818 -4.71983,-13.34101 -7.36048,-15.16569 -3.90471,-2.69815 -7.17949,-2.91026 -13.27826,-0.86003 -2.23474,0.75128 -4.27346,1.36595 -4.53048,1.36595 -0.25701,0 -0.56975,-0.40848 -0.69498,-0.90775 l -0.22768,-0.90774 -1.84776,1.24425 c -1.01626,0.68433 -2.05274,1.31262 -2.30326,1.39617 -0.52081,0.17372 -0.13285,1.47572 6.76252,22.69768 6.28794,19.35235 8.21081,25.5452 8.21081,26.44406 0,1.56314 -7.71795,6.08046 -15.11206,8.84509 -7.82135,2.92438 -19.16406,5.06032 -23.12899,4.3554 l -1.48704,-0.26439 -1.37017,-3.915 c -0.75358,-2.15325 -3.40253,-10.21569 -5.88654,-17.91654 -4.89416,-15.17269 -6.47011,-19.77725 -8.05078,-23.52262 -0.56335,-1.33482 -1.05767,-2.46647 -1.0985,-2.51477 -0.0631,-0.0746 -4.33227,0.70899 -4.58994,0.84249 -0.0491,0.0254 1.07077,3.64645 2.48855,8.04673 1.41779,4.40026 3.94804,12.28496 5.62278,17.52154 1.67474,5.23659 3.86877,12.04133 4.87563,15.12167 1.36294,4.16971 1.97435,6.78496 2.39309,10.23613 0.31588,2.60338 0.81045,5.01426 1.12819,5.49951 0.68777,1.05032 2.32574,1.93487 4.41189,2.38253 2.29402,0.49224 9.35534,0.0986 13.87019,-0.77324 z m 27.02971,-41.97788 c -0.82323,-0.44803 -1.40533,-1.86679 -4.18496,-10.20007 -3.88585,-11.64976 -4.01877,-12.29068 -2.82538,-13.62164 1.01113,-1.12766 4.93585,-2.51099 7.12407,-2.51099 2.58905,0 3.17904,0.98807 6.38945,10.70049 3.35304,10.14391 3.51502,11.48325 1.61834,13.38113 -0.82068,0.8212 -2.0761,1.4925 -3.77067,2.01623 -2.95886,0.91447 -3.08909,0.92149 -4.35085,0.23485 z m -99.43655,21.36593 c 2.43293,-7.66339 12.72054,-39.34921 13.08027,-40.28725 0.20205,-0.52688 -0.12976,-0.6084 -2.49622,-0.61317 -3.10412,-0.006 -5.85108,-0.8808 -8.70193,-2.77032 -1.52156,-1.00848 -2.15837,-1.19386 -4.25179,-1.23778 -1.3542,-0.0284 -2.91861,-0.18062 -3.47646,-0.33826 -0.95463,-0.26973 -1.06738,-0.1664 -1.91782,1.7578 -1.13425,2.56641 -3.33594,5.03706 -5.27694,5.92163 -1.85403,0.84492 -5.31655,0.90153 -7.19488,0.11755 -0.76299,-0.31845 -1.93047,-1.10504 -2.59438,-1.74801 -0.6639,-0.64296 -1.27842,-1.0965 -1.36559,-1.00786 -0.35274,0.35871 -11.41994,34.8854 -11.41994,35.62715 0,1.25408 9.08271,6.00079 15.29862,7.99518 6.29311,2.01917 12.25626,3.23383 16.44633,3.35002 l 1.70742,0.0473 z m 70.72838,5.63116 c 4.76511,-0.91545 12.88509,-3.57084 16.51902,-5.40201 4.15364,-2.09308 7.36176,-4.24121 7.36176,-4.92937 0,-0.34072 -0.76806,-2.97195 -1.70678,-5.84718 -5.07512,-15.54454 -7.48218,-22.95167 -10.25287,-31.5506 -1.68728,-5.23659 -3.10437,-9.56661 -3.14907,-9.6223 -0.0447,-0.0556 -1.07121,0.54865 -2.28111,1.34295 -3.02929,1.98867 -5.0809,2.71398 -8.35662,2.95436 -2.48294,0.18218 -2.95083,0.34156 -4.14901,1.41329 -0.74279,0.66436 -1.97651,1.41466 -2.7416,1.66734 -1.29572,0.42789 -1.37581,0.53978 -1.16806,1.6319 1.00582,5.28723 0.58527,8.20572 -1.54054,10.69082 -1.92624,2.25181 -3.88056,3.146 -6.91212,3.16263 -1.38525,0.008 -2.51866,0.11655 -2.51866,0.24207 0,0.1256 0.93778,3.14988 2.08398,6.72074 1.14617,3.57087 3.4272,10.69295 5.06893,15.82686 3.81515,11.93051 4.00744,12.44235 4.73763,12.61 1.09709,0.2519 5.01229,-0.14439 9.00512,-0.9115 z m -16.53559,-37.67096 c 1.61707,-0.61004 3.44793,-2.59401 3.88184,-4.2065 0.4622,-1.71755 0.20491,-3.52775 -1.00897,-7.09901 -1.20952,-3.55838 -1.19881,-3.60656 0.80149,-3.60656 2.13118,0 4.11552,-0.81905 5.69964,-2.35254 1.19573,-1.15749 1.33457,-1.19454 4.47765,-1.19454 2.80629,0 3.53395,-0.14263 5.39658,-1.05784 1.28161,-0.62974 2.71568,-1.73151 3.54339,-2.72236 1.37803,-1.6496 1.40714,-1.6625 3.25755,-1.44201 2.32884,0.2775 4.78471,-0.85228 6.09816,-2.80534 0.75538,-1.12324 0.85373,-1.63254 0.70016,-3.62553 -0.3031,-3.93346 -2.97949,-7.36828 -7.31182,-9.38383 -2.83877,-1.3207 -6.54447,-1.37493 -9.06469,-0.13267 l -1.74375,0.85952 -1.64257,-1.2546 c -3.6336,-2.77537 -9.46856,-3.31288 -13.76052,-1.26762 -2.37098,1.12985 -5.0745,3.81194 -6.30742,6.25743 -0.45472,0.90194 -0.86226,1.68204 -0.90563,1.73358 -0.0434,0.0515 -0.90428,0.1849 -1.91311,0.29633 -2.83837,0.31359 -4.00758,0.81148 -5.45444,2.32276 -1.90272,1.98741 -2.53846,3.4759 -2.67987,6.27458 -0.1148,2.27175 -0.20358,2.49422 -1.20218,3.01264 -2.48659,1.29088 -3.50529,2.95575 -3.50529,5.72874 0,2.44482 0.67652,4.02059 2.36184,5.50126 2.33496,2.05142 5.54632,2.00029 8.07471,-0.12858 1.3353,-1.1243 2.05122,-0.98266 2.41768,0.47833 0.14498,0.57801 0.75657,2.33007 1.35911,3.89347 1.8813,4.88152 5.13265,7.16501 8.43046,5.92089 z m -68.00872,-8.71477 c 1.78781,-1.04841 2.82106,-2.74058 3.94245,-6.45657 1.03383,-3.42586 1.38533,-3.72524 2.98629,-2.54332 1.84092,1.35905 3.56082,1.80699 5.97052,1.55497 2.01478,-0.21073 2.18069,-0.16311 3.20921,0.92089 2.43978,2.57135 6.92463,3.84172 10.57997,2.99681 1.59505,-0.36869 1.71374,-0.33453 3.05722,0.88001 2.5351,2.29176 5.91335,2.57513 8.15894,0.68438 3.10285,-2.61254 3.63486,-7.64485 1.33878,-12.66334 -1.61031,-3.51964 -5.40633,-6.47811 -8.33752,-6.49795 -0.9436,-0.008 -1.21269,-0.16702 -1.21269,-0.72399 0,-1.01652 -1.28802,-3.89274 -2.59346,-5.79135 -1.42445,-2.07169 -4.50168,-4.1115 -7.43265,-4.92691 -1.98697,-0.55277 -2.64528,-0.57855 -4.81328,-0.18849 -1.38131,0.24852 -3.40168,0.88162 -4.48969,1.40691 l -1.97821,0.95504 -1.38003,-0.90677 c -3.80653,-2.50115 -7.3322,-2.36397 -10.84761,0.42206 -0.75863,0.60123 -1.61175,1.52771 -1.89583,2.05886 -0.46565,0.87063 -0.73255,0.9657 -2.71081,0.9657 -2.48609,0 -3.88408,0.59018 -5.25239,2.21737 -1.31377,1.56231 -1.87917,3.49772 -1.58847,5.43747 0.49189,3.28223 2.96231,5.41329 6.27534,5.41329 1.19562,0 1.85694,0.17471 1.99173,0.52618 0.11097,0.28939 -0.24187,1.92758 -0.7841,3.64042 -1.44315,4.55863 -1.53794,6.12612 -0.49293,8.15175 1.70261,3.3003 5.13691,4.321 8.29922,2.46658 z m 38.16745,-25.31591 c -2.70462,-4.59072 -3.93745,-5.54009 -5.27452,-4.0617 -0.52484,0.5803 -0.56608,0.8675 -0.21802,1.51826 0.44458,0.83124 5.95189,4.63292 6.26199,4.32263 0.0965,-0.0965 -0.2498,-0.89715 -0.76945,-1.77919 z m 13.44193,-0.75222 c 1.76331,-1.18988 2.44724,-2.18495 2.10864,-3.06789 -0.35351,-0.92183 -1.92507,-1.14971 -2.75371,-0.39933 -0.74058,0.67064 -3.7337,5.42897 -3.7337,5.93566 0,0.30006 1.67687,-0.64524 4.37877,-2.46844 z m -7.39496,-2.11118 c 1.21071,-5.16017 0.99505,-6.39449 -1.11726,-6.39449 -1.72943,0 -2.02393,0.77655 -1.52132,4.01153 0.51473,3.31293 1.17506,5.69622 1.57824,5.69622 0.15564,0 0.63279,-1.49096 1.06034,-3.31326 z"
         id="path1"
         sodipodi:nodetypes="cccccsssccssssssssssscssssssssssssssssssssscssssssssssscsssssscssscssssssscsssssssscscscssscsssscccssscscsssssscsssssssssssssssssscssscssssssssssssssssssscssssscssssssssssssssssssssssssss" /></g></g></svg>
