<?xml version="1.0" encoding="UTF-8" standalone="no"?>
<!-- Created with Inkscape (http://www.inkscape.org/) -->

<svg
   width="1023.9999"
   height="1023.9999"
   viewBox="0 0 270.93332 270.93332"
   version="1.1"
   id="svg1"
   xml:space="preserve"
   inkscape:version="1.4.3 (0d15f75042, 2025-12-25)"
   sodipodi:docname="unlink.svg"
   inkscape:export-filename="unlink.png"
   inkscape:export-xdpi="96"
   inkscape:export-ydpi="96"
   xmlns:inkscape="http://www.inkscape.org/namespaces/inkscape"
   xmlns:sodipodi="http://sodipodi.sourceforge.net/DTD/sodipodi-0.dtd"
   xmlns="http://www.w3.org/2000/svg"
   xmlns:svg="http://www.w3.org/2000/svg"><sodipodi:namedview
     id="namedview1"
     pagecolor="#ffffff"
     bordercolor="#000000"
     borderopacity="0.25"
     inkscape:showpageshadow="2"
     inkscape:pageopacity="0.0"
     inkscape:pagecheckerboard="0"
     inkscape:deskcolor="#d1d1d1"
     inkscape:document-units="mm"
     inkscape:zoom="0.32776069"
     inkscape:cx="718.51203"
     inkscape:cy="459.17648"
     inkscape:window-width="1880"
     inkscape:window-height="1052"
     inkscape:window-x="0"
     inkscape:window-y="0"
     inkscape:window-maximized="1"
     inkscape:current-layer="layer1" /><defs
     id="defs1" /><g
     inkscape:label="Layer 1"
     inkscape:groupmode="layer"
     id="layer1"
     transform="translate(516.749,-660.34307)"><path
       style="fill:#f9f5eb"
       d="M -516.749,795.80973 V 660.34307 h 135.46666 135.46666 V 795.80973 931.27639 H -381.28234 -516.749 Z"
       id="path47" /><path
       style="fill:#95a898"
       d="m -332.7313,869.47486 c -27.92271,-4.89037 -38.91961,-39.22029 -18.93969,-59.12556 21.99037,-21.90821 59.28865,-6.33741 59.28865,24.75105 0,21.28363 -19.62629,38.00387 -40.34896,34.37451 z m -81.88854,-29.28811 c -9.19874,-3.14765 -12.99447,-13.70716 -7.71871,-21.47306 0.90729,-1.33554 10.84792,-12.06215 14.49561,-15.64175 3.71074,-3.64148 12.76536,-5.70775 14.27909,-3.2585 0.40503,0.65535 -4.8735,5.64627 -6.46254,6.11042 -1.92263,0.56159 -2.14463,0.76395 -10.23877,9.33274 -7.48969,7.92891 -7.66197,8.18174 -7.66197,11.24479 0,4.34515 3.14052,7.54147 7.40833,7.53998 3.10886,-10e-4 3.43292,-0.24857 11.67224,-8.9141 7.24085,-7.61539 8.28481,-8.94859 8.29799,-10.59703 0.007,-0.87148 4.8592,-6.35828 5.50999,-6.23057 1.27707,0.2506 1.671,6.37289 0.60748,9.44135 -1.04871,3.02577 -1.96321,4.10268 -14.29454,16.83337 -5.71334,5.89838 -10.31242,7.52234 -15.8942,5.61236 z m 37.43424,-21.95632 c -0.8386,-0.72133 -2.04908,-8.00144 -1.56179,-9.39295 0.60661,-1.73227 3.21772,-2.03326 4.21265,-0.4856 0.39472,0.614 1.1899,5.89224 1.1899,7.89831 0,2.3145 -2.15841,3.42734 -3.84076,1.98024 z m -22.94497,-1.66821 c -2.88063,-1.56302 -2.22583,-3.60704 2.83885,-8.86164 10.53412,-10.92916 10.53616,-10.93085 12.42885,-10.30621 2.54855,0.8411 3.04903,4.06288 0.92531,5.95661 -0.32601,0.29069 -3.21749,3.26698 -6.42552,6.61395 -7.22232,7.53514 -7.58615,7.78087 -9.76749,6.59729 z m 34.85552,-2.19979 c -2.03226,-1.26818 -6.21771,-5.99727 -6.21771,-7.02532 0,-1.16293 1.17006,-2.53216 2.16246,-2.53056 1.63175,0.003 7.89171,5.95415 7.89171,7.50288 0,2.04335 -2.07366,3.15302 -3.83646,2.053 z m 1.5875,-11.55521 c -4.02286,-0.54175 -4.37563,-0.63345 -5.05664,-1.31446 -2.50469,-2.50469 -0.0425,-4.26803 5.1341,-3.67688 5.4303,0.62011 6.67529,1.50564 5.55957,3.95436 -0.65892,1.44619 -1.47866,1.59698 -5.63703,1.03698 z m -14.06712,-8.61348 c -1.34572,-0.3852 -2.20475,-1.62265 -2.20475,-3.176 v -1.31179 l 2.31271,-2.43822 c 5.35983,-5.65068 11.59921,-11.98586 12.09878,-12.28456 2.30226,-1.37654 5.33855,1.10331 4.60476,3.76087 -0.30541,1.1061 -13.5885,15.06533 -14.61475,15.35867 -1.1092,0.31704 -1.3695,0.32783 -2.19675,0.091 z m -22.06837,-0.48837 c -4.71146,-0.67025 -5.95354,-1.71845 -4.73479,-3.99572 0.94853,-1.77233 9.64845,-1.26604 10.9829,0.63916 1.96639,2.80741 -0.56166,4.1655 -6.24811,3.35656 z m 31.92337,-1.42423 c -0.57042,-0.17211 -1.07311,-0.43085 -1.11708,-0.57498 -0.1596,-0.52312 5.28988,-5.9506 5.97471,-5.9506 1.59655,0 2.87932,-1.08423 9.48292,-8.01523 9.30208,-9.76327 8.91745,-9.21877 8.91611,-12.62227 -0.003,-8.11745 -7.94872,-10.13929 -14.24331,-3.62439 -12.14846,12.57364 -12.70938,13.232 -13.03934,15.30443 -0.19189,1.20521 -4.74702,6.57621 -5.57727,6.57621 -1.75031,0 -1.6762,-7.53783 0.10898,-11.08371 1.89475,-3.76354 16.40288,-18.59008 19.70111,-20.13351 12.67467,-5.9312 25.34688,9.12459 17.46671,20.75212 -0.9046,1.33478 -12.02346,13.283 -14.96165,16.07764 -3.19813,3.0419 -8.76607,4.48483 -12.71189,3.29429 z m -71.06183,-0.8886 c -28.59138,-3.06193 -41.4521,-38.07051 -21.58845,-58.76662 20.55389,-21.41529 56.11574,-9.31108 59.68306,20.31437 2.59174,21.52355 -16.47344,40.76771 -38.09461,38.45225 z M -452.14732,778.117 c 0.27586,-6.86809 6.05265,-10.43621 16.88998,-10.43232 10.50822,0.004 16.11295,3.49623 16.58057,10.33182 0.19853,2.90213 0.26967,2.93491 2.29668,1.05833 l 1.50041,-1.38906 -0.26981,-1.85208 c -1.07933,-7.40889 -8.47251,-11.78476 -19.93482,-11.79899 -12.34314,-0.0153 -19.99862,4.53399 -20.72533,12.31617 l -0.15208,1.62862 1.68709,1.36473 c 2.14768,1.73731 2.00493,1.81966 2.12731,-1.22722 z m 20.95602,-17.34181 c 10.74825,-4.04563 11.36503,-18.71291 0.99515,-23.66507 l -2.01848,-0.96393 -3.175,0.009 c -15.58656,0.0447 -17.4228,21.96571 -2.11666,25.26873 1.61368,0.34823 4.43661,0.0582 6.31499,-0.64883 z m -7.95451,-3.85158 c -8.4077,-4.24899 -6.07103,-16.67958 3.22374,-17.14964 9.64938,-0.48798 13.10561,12.36073 4.5775,17.01707 -2.21919,1.21168 -5.55383,1.26834 -7.80124,0.13257 z m 43.11974,28.33853 c -5.08951,-4.40539 -6.00853,-6.04711 -4.32662,-7.72902 1.38207,-1.38206 1.98487,-1.15661 5.42969,2.03082 4.27139,3.95225 4.79555,5.08528 3.03703,6.56498 -1.28727,1.08316 -2.07879,0.91744 -4.1401,-0.86678 z m 9.05519,-1.07962 c -1.31545,-0.53841 -1.618,-1.47763 -2.21929,-6.88963 -0.35895,-3.23084 0.28346,-4.50191 2.27532,-4.50191 1.79022,0 2.1771,0.81107 2.87476,6.0267 0.60893,4.55223 -0.40071,6.40038 -2.93079,5.36484 z"
       id="path45" /><path
       style="fill:#468577"
       d="m -331.52064,869.34133 c -25.26367,-3.27058 -38.41876,-32.5964 -24.12458,-53.77945 15.81609,-23.43844 52.17026,-18.53992 61.14186,8.23852 8.11976,24.23588 -11.8464,48.79949 -37.01728,45.54093 z m 9.76955,-5.11947 c 2.51078,-0.45685 5.87747,-1.68932 8.59896,-3.14788 l 2.11666,-1.13441 v -2.76232 c 0,-7.0879 -4.48108,-10.20335 -15.1039,-10.5009 -11.30725,-0.31672 -16.80541,2.91364 -17.23574,10.12659 -0.18265,3.06142 -0.16517,3.0872 3.20476,4.72503 5.78739,2.81276 12.42817,3.784 18.41926,2.69389 z m -26.02977,-10.69313 c 1.53471,-7.52373 9.01634,-11.75985 20.7381,-11.74197 11.54764,0.0176 19.2245,4.36449 20.66672,11.70213 0.42339,2.15407 0.35212,2.091 1.32339,1.17134 11.82383,-11.1956 8.94449,-34.54094 -5.45365,-44.21743 -27.95987,-18.79085 -60.89484,17.38092 -39.42292,43.29734 1.58756,1.91617 1.71697,1.90344 2.14836,-0.21141 z m 17.7178,-13.28282 c -8.14143,-2.04866 -12.62372,-11.44826 -8.96364,-18.79723 6.07633,-12.20049 23.72504,-9.12656 25.10813,4.37315 0.90169,8.80096 -7.75499,16.53516 -16.14449,14.42408 z m 6.66957,-5.43234 c 6.20452,-3.09184 6.28894,-12.20917 0.14105,-15.23299 -8.6796,-4.26904 -16.50817,6.51967 -9.79616,13.50029 2.39845,2.49443 6.60987,3.25021 9.65511,1.7327 z m -89.10968,5.54417 c -9.44483,-1.81261 -14.4874,-11.49043 -10.37727,-19.91634 0.9064,-1.85816 9.65414,-11.60435 15.64985,-17.43608 3.17278,-3.08602 9.04372,-4.56577 12.67093,-3.19367 0.90256,0.34141 -3.48768,5.11477 -5.10973,5.55563 -2.13257,0.57962 -3.05031,1.38435 -10.17613,8.92308 -8.23109,8.70804 -8.58274,9.20838 -8.58225,12.21103 9.3e-4,5.72634 6.17897,9.73668 11.16895,7.25007 3.24881,-1.61895 16.75793,-16.61714 17.13257,-19.02103 0.18095,-1.16108 4.54727,-6.19 5.08557,-5.85731 0.54807,0.33873 0.92106,2.889 0.77524,5.30068 -0.2713,4.48721 -1.20823,6.05418 -7.60823,12.72447 -2.23398,2.32833 -5.49757,5.72863 -7.25242,7.55621 -4.68412,4.8783 -8.93747,6.75529 -13.37708,5.90326 z m 36.30754,-22.00102 c -2.07162,-0.33018 -3.05384,-9.78293 -1.08835,-10.47416 2.00434,-0.70489 2.58818,0.22528 3.26658,5.20423 0.60483,4.4391 0.11064,5.63473 -2.17823,5.26993 z m -24.27027,-2.54817 c -1.82349,-1.82349 -1.39506,-2.64445 4.80155,-9.2007 9.19631,-9.73003 9.61699,-10.02716 11.70688,-8.26863 1.99037,1.67479 1.45159,3.00714 -3.09636,7.65696 -1.99266,2.0373 -5.08719,5.22222 -6.87675,7.07761 l -3.25373,3.37344 h -1.32146 c -1.0442,0 -1.45545,-0.134 -1.96013,-0.63868 z m 32.53817,-4.49968 c -3.49176,-3.35838 -3.94288,-4.33523 -2.5303,-5.47907 1.64295,-1.33037 8.6191,4.15622 8.54617,6.72138 -0.0825,2.90335 -2.14934,2.47654 -6.01587,-1.24231 z m 2.68193,-9.12781 c -3.29408,-0.51633 -4.04436,-1.02093 -3.75444,-2.52499 0.26619,-1.38094 1.07534,-1.81589 3.06373,-1.6469 6.58505,0.55967 7.67292,0.94182 7.67292,2.69535 0,2.06784 -1.36641,2.3568 -6.98221,1.47654 z m -12.59696,-8.41027 c -1.42375,-0.52046 -2.15397,-2.27991 -1.54176,-3.71486 0.67985,-1.5935 13.66095,-14.75431 14.77202,-14.97652 1.21362,-0.24273 2.55359,0.41289 3.07389,1.50396 0.87044,1.82534 0.68617,2.09521 -6.69203,9.80098 -7.338,7.66379 -7.82651,8.03918 -9.61212,7.38644 z m -22.58946,-0.59058 c -3.46242,-0.49263 -3.86887,-0.73592 -3.86887,-2.31584 0,-1.98309 1.09676,-2.24408 6.35701,-1.51278 3.97938,0.55323 4.78463,1.0947 4.32882,2.9108 -0.38229,1.52316 -1.50237,1.67397 -6.81696,0.91782 z m 33.31089,-1.10401 c -0.72441,-0.14725 -1.36371,-0.31431 -1.42065,-0.37125 -0.25695,-0.25696 4.85009,-5.42039 5.36358,-5.42281 1.99844,-0.009 2.62073,-0.57715 15.40792,-14.05737 2.88496,-3.04131 3.63146,-4.49917 3.63899,-7.10671 0.017,-5.87212 -5.99076,-9.71591 -11.15346,-7.13607 -3.46929,1.73362 -16.71941,16.33658 -17.1258,18.87432 -0.1908,1.19151 -4.56424,6.22933 -5.11325,5.89002 -1.69228,-1.04589 -0.86711,-8.56644 1.28375,-11.70003 1.57002,-2.28736 15.31354,-16.50492 17.03153,-17.61898 12.3995,-8.04065 26.78429,7.11409 18.50544,19.49595 -1.65062,2.46866 -15.39201,16.50266 -17.24772,17.61498 -2.47148,1.48142 -6.29428,2.12254 -9.17033,1.53795 z m -71.84017,-1.01382 c -28.63388,-3.03318 -41.20679,-38.37406 -20.89818,-58.74214 18.15407,-18.20723 48.79228,-11.04426 57.10612,13.35095 7.99237,23.45194 -11.58858,47.99911 -36.20794,45.39119 z m -12.89318,-12.497 c 0.38659,-7.01581 5.95396,-10.5369 16.6604,-10.5369 10.29042,0 16.06816,3.73485 16.08058,10.39482 0.006,3.28783 0.29084,3.34892 3.27051,0.70176 l 1.29018,-1.14621 -0.1512,-1.61921 c -0.76064,-8.14553 -9.35027,-13.21155 -21.61146,-12.74609 -11.74865,0.446 -18.80264,4.76832 -19.81063,12.13893 -0.30344,2.21877 -0.24084,2.35401 1.86714,4.03349 2.35221,1.87406 2.23055,1.93582 2.40448,-1.22059 z m 19.79047,-17.04443 c 9.87706,-2.90116 12.95695,-14.94632 5.67636,-22.19976 -9.07583,-9.04199 -24.46544,-0.50442 -21.84489,12.11871 1.49776,7.21465 9.32092,12.09238 16.16853,10.08105 z m -5.70667,-4.42822 c -7.54507,-2.48774 -8.40538,-12.75077 -1.35586,-16.17469 7.26226,-3.52724 14.92853,4.32547 11.39267,11.66975 -1.72622,3.58553 -6.42664,5.69527 -10.03681,4.50494 z m 40.21264,26.16199 c -3.41642,-3.29202 -3.8257,-4.12847 -2.65372,-5.4235 1.55615,-1.71952 9.52725,4.72804 8.70391,7.04031 -0.86123,2.41863 -2.24641,2.04846 -6.05019,-1.61681 z m 9.98285,-4e-4 c -0.80974,-1.02942 -1.68022,-8.08482 -1.12539,-9.12153 0.66828,-1.2487 2.9153,-1.22132 3.44207,0.0419 0.31709,0.76043 1.06595,6.06434 1.06595,7.54979 0,2.04406 -2.19666,3.03751 -3.38263,1.5298 z"
       id="path44" /><path
       style="fill:#296445"
       d="m -333.78963,868.71429 c -26.90661,-5.68581 -36.92653,-38.97276 -17.49653,-58.12482 21.83443,-21.52209 58.37465,-6.08061 58.37465,24.66845 0,21.43916 -20.05852,37.85589 -40.87812,33.45637 z m 11.90625,-4.14417 c 2.91619,-0.47437 8.93136,-2.87252 10.77675,-4.29652 0.94259,-0.72735 0.76828,-5.29923 -0.29357,-7.69971 -2.381,-5.38265 -13.41438,-7.93755 -23.44777,-5.42959 -6.05529,1.51359 -8.56376,4.30813 -8.80513,9.80931 l -0.123,2.80325 0.7599,0.53667 c 5.35026,3.77855 13.74768,5.47791 21.13282,4.27659 z m -25.75329,-10.10751 c 1.13363,-7.9251 8.50882,-12.3508 20.58195,-12.3508 11.62386,0 19.14906,4.38055 20.43805,11.89735 0.38873,2.26689 0.58037,2.29574 2.25606,0.33963 16.13317,-18.833 3.17987,-48.28766 -21.63889,-49.20492 -22.75997,-0.84117 -37.90917,22.92999 -27.69054,43.45023 1.49587,3.0039 4.91887,7.41919 5.58076,7.19856 0.16307,-0.0543 0.37574,-0.65288 0.47261,-1.33005 z m 17.94808,-14.49167 c -7.15881,-1.38776 -12.10174,-9.78101 -9.7942,-16.63084 3.19019,-9.46995 14.37142,-12.39957 21.35089,-5.59419 9.17085,8.94208 0.99834,24.65887 -11.55669,22.22503 z m 6.19646,-4.72919 c 4.39002,-1.88178 6.44061,-7.8707 4.14792,-12.11435 -2.88246,-5.33529 -9.48515,-6.51649 -13.7137,-2.45332 -7.0896,6.81232 0.54265,18.43543 9.56578,14.56767 z m -116.46239,-44.4864 c -21.078,-2.45184 -34.92518,-25.11521 -27.78862,-45.48104 10.66891,-30.44621 54.00904,-30.48432 64.60017,-0.0568 8.43074,24.22089 -11.20877,48.516 -36.81155,45.53784 z m -11.65672,-12.14021 c 0.46495,-6.95881 5.70025,-10.28098 16.2531,-10.31376 10.41205,-0.0323 15.9758,3.55056 15.9758,10.28796 0,3.46037 0.69836,3.51801 4.0349,0.33303 3.70578,-3.53745 -2.2056,-11.93851 -9.98724,-14.19354 -15.13937,-4.38722 -30.44363,1.29004 -31.03543,11.51288 l -0.11625,2.00826 2.05911,1.64366 c 2.57684,2.05693 2.59366,2.04929 2.81601,-1.27849 z m 19.83176,-16.92705 c 9.8367,-3.03936 12.89757,-14.93659 5.75618,-22.3736 -8.19385,-8.53304 -22.72778,-2.50944 -22.72778,9.41956 0,8.82297 8.7432,15.49646 16.9716,12.95404 z m -5.72681,-4.73932 c -3.39732,-0.8939 -5.86916,-3.93917 -6.14367,-7.5689 -0.68878,-9.10718 11.40502,-12.62377 15.53637,-4.5176 3.26452,6.40533 -2.5497,13.88705 -9.3927,12.0865 z"
       id="path43" /><path
       style="fill:#1f4b33"
       d="m -329.95317,869.08832 c -23.68482,-2.45711 -37.25156,-25.52469 -28.31445,-48.14318 8.4016,-21.26318 38.82924,-26.78909 55.33069,-10.04851 22.04241,22.36182 3.91803,61.40086 -27.01624,58.19169 z m 9.07455,-4.38179 c 3.22292,-0.65898 9.64545,-3.58888 10.40365,-4.74604 0.95943,-1.46427 -0.0772,-7.18701 -1.68631,-9.30952 -3.01208,-3.97305 -14.16472,-5.9725 -22.02523,-3.9487 -7.26651,1.87087 -9.56386,4.32389 -9.74575,10.40612 l -0.0885,2.95804 1.0145,0.67121 c 1.21229,0.80207 4.98744,2.46036 7.82038,3.43522 3.49103,1.20133 9.87694,1.43952 14.30722,0.53367 z m -26.53705,-9.63467 c 0,-6.01556 5.06971,-10.44007 13.81564,-12.05735 13.67211,-2.52823 25.43805,2.34814 26.67283,11.0545 0.3696,2.60602 0.53124,2.6914 2.13571,1.1281 13.29692,-12.95571 8.76283,-38.45689 -8.36064,-47.02294 -26.56838,-13.29088 -53.90577,14.30101 -40.55331,40.93084 2.59429,5.17399 6.28977,8.67974 6.28977,5.96685 z m 18.16767,-15.3405 c -11.65957,-2.07756 -14.30664,-18.72196 -3.78645,-23.80863 11.59904,-5.60831 22.54666,5.53999 16.97859,17.28982 -2.11569,4.46455 -8.10668,7.42496 -13.19214,6.51881 z m 5.92525,-4.18626 c 4.33514,-1.86581 6.50248,-7.99568 4.36576,-12.34762 -2.85781,-5.82061 -9.93238,-7.06264 -14.45693,-2.53809 -7.09238,7.09238 0.87869,18.85068 10.09117,14.88571 z m -117.16019,-45.04456 c -24.93528,-3.24193 -37.53319,-34.02342 -22.23179,-54.32075 16.46521,-21.84113 50.8388,-16.45138 59.47488,9.3256 8.15246,24.33346 -11.69846,48.31629 -37.24309,44.99515 z m 10.38498,-4.50612 c 2.80442,-0.47055 6.82186,-1.94381 9.92187,-3.63852 0.50933,-0.27843 1.36563,-0.71401 1.9029,-0.96795 1.27498,-0.60261 3.83519,-2.89238 4.07349,-3.64319 0.10261,-0.32328 0.93463,-1.40742 1.84894,-2.4092 12.90342,-14.13793 6.42727,-38.97821 -12.06433,-46.27462 -4.85494,-1.91566 -4.82935,-1.91125 -10.97454,-1.89317 -14.54093,0.0428 -26.2341,9.33026 -29.12575,23.13363 -1.77193,8.45832 0.79233,19.40483 5.78587,24.69926 0.70663,0.74921 1.51206,1.85022 1.78984,2.44669 0.6698,1.43824 4.13228,4.33714 5.18987,4.34512 0.4322,0.003 1.52643,0.50878 2.5835,1.19352 2.73109,1.76913 6.19336,2.77392 11.66001,3.38384 1.25638,0.14018 5.66776,-0.0834 7.40833,-0.37541 z"
       id="path42" /></g></svg>
