<?xml version="1.0" encoding="UTF-8" standalone="no"?>
<!-- Created with Inkscape (http://www.inkscape.org/) -->

<svg
   width="270.93335mm"
   height="270.93335mm"
   viewBox="0 0 270.93335 270.93335"
   version="1.1"
   id="svg1"
   xml:space="preserve"
   inkscape:version="1.4.3 (0d15f75042, 2025-12-25)"
   sodipodi:docname="cheers.svg"
   xmlns:inkscape="http://www.inkscape.org/namespaces/inkscape"
   xmlns:sodipodi="http://sodipodi.sourceforge.net/DTD/sodipodi-0.dtd"
   xmlns="http://www.w3.org/2000/svg"
   xmlns:svg="http://www.w3.org/2000/svg"><sodipodi:namedview
     id="namedview1"
     pagecolor="#ffffff"
     bordercolor="#000000"
     borderopacity="0.25"
     inkscape:showpageshadow="2"
     inkscape:pageopacity="0.0"
     inkscape:pagecheckerboard="0"
     inkscape:deskcolor="#d1d1d1"
     inkscape:document-units="mm"
     inkscape:zoom="0.40925444"
     inkscape:cx="538.78463"
     inkscape:cy="678.06228"
     inkscape:window-width="1880"
     inkscape:window-height="1052"
     inkscape:window-x="0"
     inkscape:window-y="0"
     inkscape:window-maximized="1"
     inkscape:current-layer="layer1" /><defs
     id="defs1" /><g
     inkscape:label="Layer 1"
     inkscape:groupmode="layer"
     id="layer1"
     transform="translate(-38.019264,-42.615172)"><rect
       style="fill:#2d6a4f;stroke-width:0.902999;paint-order:stroke markers fill;fill-opacity:1"
       id="rect3"
       width="270.93332"
       height="270.93332"
       x="38.019264"
       y="42.615173" /><g
       id="g1"
       transform="matrix(0.95896055,0,0,0.95896055,9.9096152,12.578122)"><rect
         style="fill:#ffffff;fill-opacity:1;stroke-width:0.973283;paint-order:stroke markers fill"
         id="rect2"
         width="195.14613"
         height="114.36293"
         x="71.926598"
         y="132.38031" /><rect
         style="fill:#e9c46a;fill-opacity:1;stroke-width:0.864507;paint-order:stroke markers fill"
         id="rect1"
         width="53.143642"
         height="40.839542"
         x="148.80798"
         y="91.443001" /><rect
         style="fill:#4d908e;fill-opacity:1;stroke-width:0.324566;paint-order:stroke markers fill"
         id="rect1-2"
         width="23.029217"
         height="13.283903"
         x="159.05341"
         y="136.33269" /><path
         style="fill:#2d6a4f;fill-opacity:1;stroke-width:1.47111"
         d="m 67.111805,275.89054 0.1015,-206.768834 206.728985,0.03616 0.0993,206.893594 z M 142.92409,237.8514 c 2.20841,-1.12738 2.95428,-2.9322 3.4764,-8.41209 0.36962,-3.87931 0.91316,-5.87574 5.45925,-20.05171 2.77683,-8.6589 6.27127,-19.59804 7.76545,-24.30922 l 2.71666,-8.56579 -2.58155,-0.47809 c -1.41987,-0.26295 -2.70253,-0.35056 -2.85036,-0.19467 -0.14784,0.15587 -1.87441,5.27687 -3.83681,11.37999 -1.96241,6.10312 -4.7593,14.77597 -6.21531,19.27301 -1.45601,4.49703 -3.47669,10.77328 -4.49038,13.94722 -2.17784,6.81888 -2.04182,6.70288 -7.38946,6.30284 -6.94065,-0.5192 -13.71659,-2.17887 -21.59537,-5.28945 -7.23991,-2.85837 -13.998645,-6.94908 -14.330535,-8.67354 -0.0733,-0.38087 0.8302,-3.70336 2.007795,-7.38333 1.78642,-5.58257 3.69057,-11.64206 10.82178,-34.43765 0.21865,-0.69895 0.79299,-3.03116 1.2763,-5.18271 l 0.87874,-3.91191 -1.59163,-0.80725 c -0.8754,-0.44399 -1.72629,-1.00271 -1.89086,-1.24164 -0.21031,-0.3053 -0.44156,-0.25855 -0.77821,0.15735 -0.67916,0.839 -1.92435,0.68894 -5.97266,-0.71978 -6.552675,-2.2802 -11.088735,-1.53987 -15.016125,2.45078 -2.09208,2.12578 -2.39123,2.83958 -6.53273,15.58754 -3.16575,9.74452 -3.46365,11.46083 -2.585,14.89273 1.34205,5.24189 3.50735,7.22589 10.3527,9.4859 2.68285,0.88575 4.99551,1.72002 5.13924,1.85394 0.50836,0.47363 -1.52706,5.74563 -3.70072,9.58535 -2.33001,4.11592 -2.65622,5.60108 -1.65106,7.51701 1.35831,2.58909 7.5243,6.98663 14.148225,10.09041 7.06435,3.31014 19.50913,6.94009 27.02502,7.88279 4.62271,0.5798 9.99995,0.24295 11.94121,-0.74803 z M 92.565805,193.63775 c -3.45967,-1.16606 -4.86416,-2.59934 -4.86425,-4.964 -8e-5,-2.21704 5.56629,-19.39561 6.71943,-20.73707 1.26726,-1.47422 3.41149,-1.64842 6.865105,-0.55775 3.48155,1.0995 4.4886,2.17993 4.17593,4.48028 -0.11784,0.86696 -1.63449,5.94802 -3.37034,11.29126 -4.023215,12.38411 -3.993885,12.3518 -9.525875,10.48728 z m 122.956375,44.18031 c 14.15783,-2.73391 29.28899,-9.46565 34.99383,-15.56849 1.81942,-1.94632 1.86376,-2.0515 1.69085,-4.01082 -0.13809,-1.56507 -0.66536,-2.82873 -2.37316,-5.68794 -2.28406,-3.82396 -4.09684,-8.44007 -3.51742,-8.95684 0.18428,-0.16438 2.34476,-0.97805 4.80109,-1.80819 6.29836,-2.1286 8.80957,-4.2926 10.29051,-8.8677 1.17064,-3.61649 0.89358,-5.2193 -2.91911,-16.88716 -3.77151,-11.54185 -4.92182,-13.91195 -7.67548,-15.81472 -4.07181,-2.81362 -7.48674,-3.0348 -13.84651,-0.89683 -2.33038,0.78343 -4.45635,1.4244 -4.72436,1.4244 -0.26801,0 -0.59414,-0.42596 -0.72473,-0.94659 l -0.23742,-0.94659 -1.92684,1.2975 c -1.05975,0.71361 -2.14059,1.36879 -2.40183,1.45592 -0.54309,0.18115 -0.13853,1.53887 7.05193,23.66904 6.55704,20.18055 8.5622,26.63843 8.5622,27.57576 0,1.63003 -8.04825,6.34067 -15.75879,9.22362 -8.15607,3.04953 -19.9842,5.27688 -24.11882,4.54179 l -1.55068,-0.2757 -1.4288,-4.08255 c -0.78583,-2.2454 -3.54815,-10.65288 -6.13846,-18.68329 -5.10361,-15.82202 -6.74701,-20.62363 -8.39532,-24.52929 -0.58746,-1.39194 -1.10293,-2.57202 -1.14551,-2.62239 -0.0658,-0.0778 -4.51767,0.73933 -4.78637,0.87854 -0.0512,0.0265 1.11659,3.80251 2.59505,8.3911 1.47846,4.58857 4.117,12.8107 5.86341,18.27139 1.74641,5.46069 4.03434,12.55665 5.08428,15.76881 1.42127,4.34816 2.05885,7.07533 2.49551,10.67419 0.3294,2.7148 0.84513,5.22885 1.17647,5.73487 0.7172,1.09527 2.42527,2.01767 4.6007,2.48449 2.3922,0.51331 9.75571,0.10285 14.46378,-0.80633 z m 28.18646,-43.77436 c -0.85846,-0.4672 -1.46547,-1.94668 -4.36405,-10.63658 -4.05215,-12.14833 -4.19076,-12.81667 -2.9463,-14.20459 1.0544,-1.17592 5.14708,-2.61845 7.42895,-2.61845 2.69985,0 3.31509,1.03035 6.66289,11.15842 3.49654,10.57803 3.66545,11.97469 1.6876,13.95379 -0.8558,0.85634 -2.16495,1.55637 -3.93204,2.10251 -3.08549,0.95361 -3.22129,0.96093 -4.53705,0.2449 z m -103.69201,22.28031 c 2.53705,-7.99135 13.26493,-41.03319 13.64005,-42.01138 0.2107,-0.54943 -0.13531,-0.63443 -2.60305,-0.63941 -3.23696,-0.006 -6.10148,-0.91849 -9.07433,-2.88888 -1.58668,-1.05163 -2.25074,-1.24495 -4.43375,-1.29075 -1.41216,-0.0296 -3.04352,-0.18835 -3.62524,-0.35273 -0.99548,-0.28128 -1.11306,-0.17353 -1.99989,1.83302 -1.1828,2.67624 -3.47871,5.25263 -5.50277,6.17505 -1.93338,0.88108 -5.54408,0.94011 -7.50279,0.12258 -0.79565,-0.33207 -2.01309,-1.15233 -2.70541,-1.82281 -0.69232,-0.67048 -1.33313,-1.14343 -1.42403,-1.051 -0.36784,0.37406 -11.90867,36.37835 -11.90867,37.15184 0,1.30775 9.47141,6.2576 15.95334,8.33735 6.56242,2.10558 12.78077,3.37222 17.15016,3.49338 l 1.78049,0.0493 z m 73.75526,5.87215 c 4.96903,-0.95463 13.43651,-3.72366 17.22596,-5.6332 4.3314,-2.18265 7.67681,-4.42271 7.67681,-5.14032 0,-0.3553 -0.80093,-3.09914 -1.77982,-6.09742 -5.29232,-16.20978 -7.80239,-23.9339 -10.69165,-32.90083 -1.75949,-5.46069 -3.23722,-9.97602 -3.28384,-10.03409 -0.0466,-0.058 -1.11705,0.57213 -2.37873,1.40042 -3.15893,2.07378 -5.29834,2.83013 -8.71425,3.08079 -2.5892,0.18998 -3.07711,0.35618 -4.32657,1.47378 -0.77458,0.69279 -2.06109,1.4752 -2.85893,1.73869 -1.35117,0.4462 -1.43469,0.56288 -1.21804,1.70174 1.04886,5.5135 0.61031,8.55689 -1.60647,11.14834 -2.00868,2.34818 -4.04663,3.28064 -7.20793,3.29798 -1.44454,0.008 -2.62645,0.12154 -2.62645,0.25243 0,0.13097 0.97791,3.28468 2.17316,7.00836 1.19523,3.72369 3.57388,11.15056 5.28586,16.50418 3.97843,12.44109 4.17895,12.97483 4.94038,13.14965 1.14404,0.26268 5.2268,-0.15057 9.39051,-0.9505 z m -17.24325,-39.28312 c 1.68628,-0.63615 3.59549,-2.70502 4.04797,-4.38652 0.48198,-1.79106 0.21368,-3.67872 -1.05215,-7.40282 -1.26128,-3.71066 -1.25011,-3.76091 0.83579,-3.76091 2.22238,0 4.29165,-0.8541 5.94356,-2.45321 1.2469,-1.20703 1.39168,-1.24566 4.66927,-1.24566 2.92639,0 3.68519,-0.14874 5.62753,-1.10312 1.33646,-0.65669 2.8319,-1.80561 3.69504,-2.83886 1.437,-1.7202 1.46736,-1.73365 3.39696,-1.50372 2.4285,0.28937 4.98947,-0.88876 6.35913,-2.9254 0.78771,-1.17131 0.89027,-1.70241 0.73013,-3.78069 -0.31608,-4.10179 -3.107,-7.68361 -7.62474,-9.78542 -2.96026,-1.37722 -6.82454,-1.43377 -9.45262,-0.13834 l -1.81837,0.8963 -1.71287,-1.30829 c -3.7891,-2.89414 -9.87377,-3.45466 -14.34941,-1.32187 -2.47245,1.1782 -5.29167,3.97507 -6.57735,6.52522 -0.47418,0.94054 -0.89916,1.75403 -0.94439,1.80777 -0.0453,0.0537 -0.94298,0.19281 -1.99498,0.30901 -2.95984,0.32701 -4.17909,0.84621 -5.68787,2.42217 -1.98415,2.07246 -2.64709,3.62465 -2.79456,6.5431 -0.11971,2.36897 -0.21229,2.60097 -1.25363,3.14157 -2.593,1.34613 -3.6553,3.08224 -3.6553,5.97391 0,2.54944 0.70548,4.19265 2.46292,5.73669 2.43489,2.13921 5.78368,2.08589 8.42027,-0.13408 1.39245,-1.17242 2.13901,-1.02472 2.52115,0.4988 0.15118,0.60274 0.78895,2.42978 1.41727,4.06009 1.96182,5.09043 5.35231,7.47164 8.79125,6.17428 z m -70.9192,-9.08773 c 1.86432,-1.09327 2.94179,-2.85786 4.11117,-6.73288 1.07807,-3.57247 1.44461,-3.88466 3.11409,-2.65216 1.9197,1.41721 3.71321,1.88432 6.22603,1.62151 2.101,-0.21975 2.27401,-0.17009 3.34655,0.9603 2.54419,2.6814 7.22098,4.00613 11.03275,3.12506 1.66331,-0.38446 1.78708,-0.34884 3.18806,0.91767 2.64359,2.38984 6.16641,2.68534 8.5081,0.71367 3.23564,-2.72434 3.79042,-7.97201 1.39608,-13.20528 -1.67923,-3.67026 -5.6377,-6.75534 -8.69433,-6.77603 -0.98399,-0.008 -1.26459,-0.17417 -1.26459,-0.75497 0,-1.06003 -1.34314,-4.05934 -2.70445,-6.0392 -1.48541,-2.16035 -4.69433,-4.28745 -7.75074,-5.13776 -2.072,-0.57643 -2.75848,-0.60331 -5.01926,-0.19656 -1.44043,0.25916 -3.54726,0.91935 -4.68183,1.46712 l -2.06287,0.99592 -1.43909,-0.94558 c -3.96944,-2.60819 -7.64599,-2.46514 -11.31184,0.44012 -0.7911,0.62696 -1.68073,1.59309 -1.97697,2.14697 -0.48558,0.90789 -0.7639,1.00703 -2.82682,1.00703 -2.59248,0 -4.0503,0.61544 -5.47717,2.31226 -1.36999,1.62917 -1.95959,3.64741 -1.65645,5.67018 0.51294,3.42269 3.08909,5.64495 6.5439,5.64495 1.24679,0 1.93641,0.18219 2.07697,0.5487 0.11572,0.30177 -0.25222,2.01007 -0.81766,3.79621 -1.50491,4.75372 -1.60376,6.3883 -0.51402,8.50061 1.77547,3.44154 5.35674,4.50592 8.65439,2.57214 z m 39.80085,-26.39932 c -2.82036,-4.78718 -4.10595,-5.77718 -5.50025,-4.23552 -0.5473,0.60513 -0.5903,0.90462 -0.22735,1.58323 0.46361,0.86681 6.20661,4.83119 6.52998,4.50762 0.10059,-0.10066 -0.26049,-0.93554 -0.80238,-1.85533 z m 14.01719,-0.78441 c 1.83877,-1.2408 2.55197,-2.27846 2.19888,-3.19919 -0.36864,-0.96128 -2.00745,-1.19891 -2.87156,-0.41641 -0.77227,0.69934 -3.89348,5.6613 -3.89348,6.18968 0,0.3129 1.74863,-0.67286 4.56616,-2.57408 z m -7.71143,-2.20153 c 1.26252,-5.38101 1.03763,-6.66815 -1.16508,-6.66815 -1.80344,0 -2.11054,0.80978 -1.58642,4.18321 0.53676,3.45471 1.22534,5.93999 1.64578,5.93999 0.1623,0 0.65987,-1.55476 1.10572,-3.45505 z m -0.0615,-16.53415 c 2.98348,-2.7764 27.37905,-27.35226 27.78136,-27.986657 0.77136,-1.216382 0.27385,-2.374736 -2.06817,-4.815259 -3.9536,-4.119898 -2.96957,-4.67607 -17.01889,9.619006 l -11.90782,12.11612 -4.4747,-4.55694 c -4.36276,-4.44291 -5.91231,-5.65855 -7.21282,-5.65855 -0.35017,0 -1.75964,1.07903 -3.13217,2.39784 -3.92193,3.76842 -3.95853,3.66483 4.21656,11.93072 7.28052,7.36135 9.25383,9.03265 10.6649,9.03265 0.57076,0 1.76242,-0.78602 3.15175,-2.07893 z"
         id="path1"
         sodipodi:nodetypes="cccccsssccssssssssssscssssssssssssssssssssscssssssssssscsssssscssscssssssscsssssssscscscssscsssscccssscscsssssscsssssssssssssssssscssscssssssssssssssssssscssssscsssssssssssssssssssssssssssssscssssss" /></g></g></svg>
