<?xml version="1.0" encoding="UTF-8" standalone="no"?>
<!-- Created with Inkscape (http://www.inkscape.org/) -->

<svg
   width="1023.9999"
   height="1023.9999"
   viewBox="0 0 270.93332 270.93332"
   version="1.1"
   id="svg1"
   xml:space="preserve"
   inkscape:version="1.4.3 (0d15f75042, 2025-12-25)"
   sodipodi:docname="sad.svg"
   inkscape:export-filename="sad.png"
   inkscape:export-xdpi="96"
   inkscape:export-ydpi="96"
   xmlns:inkscape="http://www.inkscape.org/namespaces/inkscape"
   xmlns:sodipodi="http://sodipodi.sourceforge.net/DTD/sodipodi-0.dtd"
   xmlns="http://www.w3.org/2000/svg"
   xmlns:svg="http://www.w3.org/2000/svg"><sodipodi:namedview
     id="namedview1"
     pagecolor="#ffffff"
     bordercolor="#000000"
     borderopacity="0.25"
     inkscape:showpageshadow="2"
     inkscape:pageopacity="0.0"
     inkscape:pagecheckerboard="0"
     inkscape:deskcolor="#d1d1d1"
     inkscape:document-units="mm"
     inkscape:zoom="0.40266195"
     inkscape:cx="455.71726"
     inkscape:cy="885.35805"
     inkscape:window-width="1880"
     inkscape:window-height="1052"
     inkscape:window-x="0"
     inkscape:window-y="0"
     inkscape:window-maximized="1"
     inkscape:current-layer="layer1" /><defs
     id="defs1" /><g
     inkscape:label="Layer 1"
     inkscape:groupmode="layer"
     id="layer1"
     transform="translate(213.85855,267.7797)"><g
       id="g3007"
       transform="translate(-153.06156,-282.47946)"><path
         style="fill:#fcf9f3"
         d="M -60.796989,150.16642 V 14.699756 H 74.66967 210.13633 V 150.16642 285.63307 H 74.66967 -60.796989 Z"
         id="path3010" /><path
         style="fill:#e0b757"
         d="M 55.355088,243.65398 C 30.590026,241.93841 13.928443,236.90314 8.1885848,229.39986 4.2195316,224.21142 4.0236595,218.41513 7.4557376,207.71329 9.5032967,201.32862 9.4295756,202.51862 9.51836,174.41864 l 0.079282,-25.09257 -1.94699,0.18245 c -7.04921093,0.66056 -12.3876844,-4.6893 -12.4124937,-12.43898 -0.00966,-3.01701 0.2852921,-4.44411 2.2145125,-10.71476 2.65939479,-8.64397 2.74015142,-13.31176 0.4600546,-26.591487 C -3.450098,91.825947 -3.0414569,87.314587 -0.48154685,82.03621 2.3971377,76.10054 7.3886986,72.200818 14.393591,70.414814 l 2.297875,-0.585878 1.31628,-1.966154 c 6.672588,-9.966978 19.905889,-13.954242 31.984619,-9.637137 2.979831,1.065033 4.759728,2.090251 7.26631,4.185384 l 1.844206,1.541485 1.781056,-0.318293 c 4.577901,-0.818116 10.374978,0.09361 14.595007,2.295397 l 1.735316,0.905397 2.069688,-0.956255 c 8.224042,-3.799741 20.422975,-3.262017 27.507932,1.21254 l 1.66935,1.054286 h 3.06724 c 3.89435,0 5.28633,0.292999 8.3299,1.753372 10.5812,5.077095 13.80229,19.325888 6.40177,28.318818 l -1.34095,1.629484 0.0768,2.33927 0.0768,2.33926 6.48229,0.16389 c 3.56526,0.0901 7.23745,0.30574 8.16042,0.4791 11.40127,2.14158 20.36865,11.45506 22.40807,23.27292 0.73025,4.23154 0.44416,43.09055 -0.33771,45.87127 -3.21341,11.42845 -12.68227,19.97511 -23.65475,21.35094 -1.20809,0.15148 -4.60074,0.27542 -7.53922,0.27542 -3.69834,0 -5.37302,0.0909 -5.44118,0.29541 -0.39844,1.19532 0.59603,6.8459 2.04512,11.6204 3.03062,9.98532 3.17279,14.31749 0.63483,19.34515 -3.92086,7.76719 -17.53083,13.13831 -39.75324,15.68846 -7.121588,0.81724 -25.699818,1.25171 -32.722332,0.76523 z m 26.913186,-7.64187 c 16.757184,-1.27397 32.431556,-5.42187 37.143366,-9.82921 3.45906,-3.23555 3.64895,-6.60256 0.88018,-15.60732 -2.83786,-9.22945 -2.75388,-7.36444 -2.75704,-61.22496 -0.001,-24.53239 -0.0656,-44.66729 -0.1425,-44.74423 -0.0769,-0.0769 -0.82108,0.0204 -1.65365,0.21635 -0.83256,0.19594 -2.44022,0.3581 -3.57258,0.36038 -1.41165,0.003 -2.09181,0.10809 -2.16376,0.33486 -0.0577,0.1819 -0.16173,22.96586 -0.23113,50.63102 -0.1032,41.13613 -0.19007,50.40258 -0.47682,50.86174 -1.9366,3.10099 -19.314576,6.72581 -34.250876,7.14429 -7.845277,0.2198 -18.674353,-0.0578 -23.789418,-0.60975 -11.737431,-1.26664 -23.002794,-4.07375 -25.370601,-6.32184 l -0.877426,-0.83307 -0.207239,-49.08021 c -0.113981,-26.99411 -0.231553,-49.43739 -0.261271,-49.87395 l -0.05403,-0.79375 -3.283464,0.0512 -3.283465,0.0512 v 16.22068 c 0,14.67153 -0.04392,16.35966 -0.45988,17.67589 -0.424365,1.34282 -0.460123,3.57068 -0.463021,28.84748 -0.0037,32.46074 -0.01295,32.60892 -2.520856,40.47335 -3.349095,10.50227 -2.60814,14.6939 3.179174,17.98479 11.700329,6.65326 38.760516,10.03077 64.616309,8.06507 z m 53.660556,-65.58606 c 1.53353,-1.00481 1.46334,-0.0585 1.48905,-20.07412 l 0.0236,-18.40023 -0.58037,-0.81506 c -0.3192,-0.44828 -0.81756,-0.94199 -1.10747,-1.09715 -0.41181,-0.22039 -8.43139,-0.42791 -10.48245,-0.27125 -0.43153,0.033 -0.49079,40.93822 -0.0595,41.08198 0.97908,0.32636 10.12407,-0.0356 10.71712,-0.42417 z M 8.855698,142.32254 c 2.729741,-1.39708 2.896199,-3.33922 2.593208,-30.25612 -0.153819,-13.664847 -0.185503,-13.578929 4.602017,-12.479199 5.074764,1.165709 8.049661,0.608959 11.635309,-2.177569 1.853245,-1.440217 1.937068,-1.448435 4.340802,-0.425554 5.191055,2.208992 11.842399,2.216145 16.152352,0.01737 1.520534,-0.775719 2.105529,-0.689302 3.743239,0.552956 5.894512,4.471186 13.085008,5.060726 19.776354,1.621442 3.026955,-1.555826 3.334874,-1.60727 5.389393,-0.900412 6.179773,2.126156 7.939963,5.288246 7.832131,14.070016 -0.09003,7.3316 1.852471,10.33139 5.972843,9.22382 2.916723,-0.78402 3.797148,-3.06986 4.140349,-10.74955 0.323206,-7.23227 1.096128,-9.65844 3.917784,-12.297773 2.623491,-2.453971 4.348971,-2.844254 6.894251,-1.559399 8.05046,4.063862 16.38763,-0.06957 17.80979,-8.829776 0.77706,-4.786516 -2.19008,-10.204627 -6.83836,-12.487108 -1.65043,-0.81042 -5.49956,-1.042299 -8.6777,-0.52276 -1.31583,0.215102 -1.33194,0.208986 -3.00627,-1.14136 -2.11196,-1.70329 -3.12732,-2.22099 -5.973848,-3.045881 -6.593295,-1.910662 -14.494752,-1.04854 -19.376662,2.114172 -2.352078,1.523779 -2.863805,1.50858 -5.406236,-0.160575 -3.376346,-2.216634 -5.238926,-2.75422 -9.496357,-2.740878 -3.007692,0.0094 -3.818717,0.102884 -5.134649,0.591688 -2.398418,0.890896 -2.538437,0.845229 -4.984492,-1.625674 -5.190741,-5.243472 -12.218104,-7.196862 -19.684205,-5.471602 -5.456067,1.260783 -10.225275,4.910203 -12.799763,9.794438 -1.346266,2.554091 -1.315562,2.536211 -5.683347,3.309572 -3.468967,0.614216 -5.8585,1.859769 -8.344973,4.34985 -4.2060565,4.21216 -5.3326916,9.103705 -3.9410537,17.110993 2.58307,14.862623 2.4384963,20.590843 -0.7778475,30.819433 -2.0868299,6.63651 -2.2809866,9.3936 -0.8271605,11.74594 1.2916458,2.08993 3.8422076,2.73222 6.1531017,1.5495 z"
         id="path3009" /><path
         style="fill:#30644a"
         d="M 57.868629,243.53673 C 46.405532,243.02564 34.226241,241.21752 25.589464,238.74462 7.0953656,233.44934 2.0393457,225.35173 7.2051892,209.30079 c 2.6897205,-8.35731 2.6415676,-7.69922 2.6415676,-36.10162 v -24.12745 l -2.0617302,0.17984 c -7.86492398,0.68607 -13.4599585,-5.95648 -12.25746,-14.55232 0.1642578,-1.17417 0.7747681,-3.68104 1.3566895,-5.57082 3.50409565,-11.37949 3.68811201,-15.09425 1.4087767,-28.43909 C -2.8362048,94.077979 -2.8679782,89.087092 -1.8021364,85.740377 0.65118299,78.03702 6.4816391,72.564901 14.21958,70.703349 l 2.566235,-0.617371 1.307564,-1.962383 c 4.686467,-7.033416 12.013015,-10.967006 21.015609,-11.283183 7.25817,-0.254913 12.590697,1.400104 17.66876,5.483722 l 2.348701,1.888751 1.784708,-0.318945 c 4.643228,-0.829791 10.332599,0.06825 14.583223,2.301887 l 1.764897,0.927426 1.553977,-0.784445 c 8.077316,-4.077416 20.629222,-3.622959 27.972516,1.01278 l 1.61827,1.021599 3.175,-0.01342 c 3.80095,-0.01607 5.70442,0.41712 8.72373,1.98532 10.24388,5.320566 12.99078,19.290763 5.51511,28.04874 l -1.15966,1.358573 0.075,2.51899 0.075,2.51899 7.01146,0.17092 c 5.81328,0.14171 7.37928,0.26412 9.1639,0.71634 9.52828,2.41446 16.73915,9.19393 19.88135,18.6919 1.39117,4.20509 1.43348,5.07565 1.33094,27.38438 -0.10519,22.8864 -0.006,21.60088 -2.05534,26.52464 -2.80951,6.74874 -8.89151,12.81258 -15.43915,15.39304 -4.0846,1.60976 -5.3456,1.80524 -12.74941,1.9764 l -6.87917,0.15904 -0.0784,1.34497 c -0.10428,1.78792 0.56009,6.08439 1.34673,8.70919 2.37469,7.92381 2.61888,8.90682 2.89865,11.66875 0.90196,8.90431 -3.59993,15.01436 -14.11331,19.15489 -13.19168,5.19534 -35.238524,7.83363 -57.257791,6.85189 z m 15.822507,-6.85266 c 12.232407,-0.43464 20.909928,-1.53593 30.258254,-3.84016 16.72129,-4.12158 20.70054,-8.51921 17.47269,-19.30979 -3.85201,-12.87716 -3.44938,-5.90974 -3.55463,-61.51199 -0.0494,-26.11899 -0.17487,-47.57159 -0.27873,-47.67245 -0.10386,-0.10086 -0.83987,-0.0132 -1.63557,0.1948 -2.65916,0.69513 -7.08262,0.50832 -9.84024,-0.41556 -2.83864,-0.95104 -2.96593,-0.95835 -3.45547,-0.19844 -0.83504,1.29621 -1.06304,2.63155 -1.28341,7.51639 -0.43352,9.60979 -2.028312,13.14065 -7.05805,15.62649 -5.30237,2.62057 -11.720687,0.37499 -14.322671,-5.01108 -1.278232,-2.64593 -1.654055,-5.14708 -1.565448,-10.41827 0.08635,-5.13687 -0.02632,-5.5141 -1.963836,-6.57515 l -0.940896,-0.51527 -2.344958,1.08486 c -3.590093,1.66089 -4.861406,1.97019 -8.694959,2.11539 -5.225422,0.19792 -10.50927,-1.11127 -14.114673,-3.49721 l -1.071543,-0.70912 -1.667308,0.54849 c -4.161857,1.3691 -10.262569,1.432 -14.690125,0.15146 l -2.439484,-0.70555 -2.455307,1.19863 c -2.559262,1.24938 -4.735099,1.71307 -8.656295,1.84473 l -1.70307,0.0572 -0.02564,16.40416 c -0.023,14.71643 -0.07236,16.55302 -0.479742,17.85089 -0.416851,1.32803 -0.454107,3.69476 -0.454107,28.84749 0,32.52959 0.0041,32.46593 -2.63504,40.61412 -2.782575,8.59094 -2.48352,12.97629 1.098596,16.10984 5.913899,5.17333 24.667474,9.50869 44.134359,10.20276 2.983177,0.10636 5.840676,0.20934 6.349999,0.22885 0.509323,0.0195 4.117108,-0.0779 8.017299,-0.2165 z m -19.40225,-50.99734 c -1.799313,-2.2751 1.802904,-8.10072 6.407036,-10.36167 5.681942,-2.79022 12.492369,-1.76189 16.803949,2.5373 3.907318,3.89609 4.568689,8.55197 1.214814,8.55197 -1.168371,0 -1.79651,-0.62473 -2.447482,-2.4342 -2.762212,-7.67795 -15.845154,-7.50284 -17.983251,0.24071 -0.603494,2.18568 -2.791009,2.98833 -3.995066,1.46589 z M 49.59782,170.24561 c -2.800727,-1.38633 -3.429981,-4.87906 -1.313336,-7.28979 3.254797,-3.70701 9.232814,-0.63796 8.14943,4.18382 -0.674957,3.00402 -3.994805,4.51239 -6.836094,3.10597 z m 31.289558,0.18481 c -3.722734,-1.65459 -3.597096,-7.15817 0.199623,-8.74454 3.74232,-1.56364 7.708816,2.31371 6.265044,6.12425 -0.892033,2.35433 -4.119619,3.66255 -6.464667,2.62029 z m 8.525696,-9.44363 c -7.234651,-0.95309 -14.272569,-7.81185 -10.184928,-9.92565 1.155568,-0.59757 1.835646,-0.29502 3.402581,1.51372 2.326376,2.68537 4.819331,3.87437 8.537589,4.07195 2.337143,0.12418 3.208587,0.53651 3.414896,1.61574 0.440825,2.30603 -1.316392,3.23194 -5.170138,2.72424 z M 40.658687,160.3649 c -0.831955,-0.83196 -0.845123,-2.00397 -0.03312,-2.94798 0.5593,-0.65023 0.846882,-0.73458 3.108854,-0.91193 3.797174,-0.29772 5.250044,-0.94652 7.67689,-3.42824 2.175653,-2.22486 2.717704,-2.53244 3.762702,-2.13513 3.870899,1.47171 -1.268801,7.91812 -7.605164,9.53869 -3.080987,0.78799 -6.05646,0.73829 -6.910162,-0.11541 z m 27.705784,-14.18472 c -3.916358,-0.83991 -3.324417,-6.25123 0.715786,-6.54347 2.108032,-0.15248 3.209716,0.74162 3.4039,2.76254 0.250888,2.61104 -1.610223,4.31911 -4.119686,3.78093 z m 20.147224,-5.2592 c -3.436851,-1.56038 -2.208828,-6.36498 1.626846,-6.36498 3.481774,0 4.57176,4.91688 1.408274,6.35267 -1.404913,0.63763 -1.655563,0.63865 -3.03512,0.0123 z m -42.15244,-8.53284 c -2.005169,-1.35877 -2.019391,-4.35645 -0.02702,-5.69487 3.37217,-2.26533 7.184351,2.13054 4.442378,5.12255 -1.182011,1.2898 -3.007397,1.5264 -4.41536,0.57232 z m 24.436012,-2.14803 c -2.55015,-2.33704 -0.452315,-6.526 2.948698,-5.88796 2.742591,0.51451 3.71961,3.96849 1.657195,5.85856 -1.41211,1.2941 -3.213322,1.3056 -4.605893,0.0294 z m 69.094193,57.77063 c 7.94962,-2.57029 13.59479,-8.83732 15.07475,-16.73535 0.65129,-3.47574 0.45714,-40.77849 -0.22539,-43.30347 -2.07628,-7.68114 -7.84625,-13.50764 -15.37853,-15.5292 -2.1424,-0.57499 -13.67889,-0.8814 -14.28379,-0.37938 -0.43761,0.36319 -0.49019,2.76318 -0.17107,7.80829 l 0.16736,2.64583 6.08542,0.13229 c 7.01999,0.15261 7.76601,0.36072 10.42207,2.90732 3.20159,3.06965 3.2454,3.43047 3.14976,25.94215 l -0.0781,18.37865 -0.62709,1.5875 c -0.763,1.93155 -3.44885,4.72322 -5.45833,5.6734 -1.56767,0.74127 -4.99162,1.10734 -9.78958,1.04666 -1.74625,-0.0221 -3.31103,-0.0251 -3.47729,-0.007 -0.34992,0.0388 -0.79968,8.8215 -0.51071,9.97286 l 0.17638,0.70276 6.53602,-0.12241 c 5.86645,-0.10987 6.72575,-0.18376 8.3881,-0.72123 z m -3.27096,-17.97465 1.03241,-1.03241 -0.0714,-18.83176 -0.0713,-18.83175 -0.99427,-0.9111 -0.99428,-0.9111 -5.35572,0.0716 -5.35573,0.0716 -0.0684,20.37291 c -0.0376,11.20511 -0.0116,20.52175 0.0578,20.70365 0.0952,0.24946 1.43617,0.33073 5.45733,0.33073 h 5.3311 z M 8.6297521,142.65386 c 1.1961279,-0.49977 2.1643759,-1.84636 2.6910359,-3.74255 0.386419,-1.39127 0.426722,-3.07422 0.341908,-14.27719 -0.05288,-6.98499 -0.08397,-15.02171 -0.06909,-17.85937 0.03882,-7.402328 0.364273,-7.950094 4.169865,-7.018155 5.114618,1.252505 8.331775,0.682755 11.932405,-2.113194 1.834135,-1.424237 1.929913,-1.430038 4.703514,-0.284906 4.865169,2.008676 10.942893,2.00437 15.514144,-0.01099 1.923117,-0.847858 2.329054,-0.801206 4.008456,0.460672 5.934796,4.459323 13.108667,5.018903 19.9089,1.552942 2.890843,-1.473411 3.214526,-1.523962 5.257485,-0.821081 3.453445,1.18816 5.749169,3.195052 6.854868,5.992442 0.574937,1.45457 0.628007,1.99284 0.664532,6.74019 0.04583,5.9563 0.380015,7.53702 1.972946,9.33202 1.496619,1.68648 4.370199,1.77541 6.174647,0.19108 1.672761,-1.4687 2.068387,-2.92831 2.330227,-8.59706 0.44557,-9.64647 2.018225,-13.234709 6.749935,-15.400958 l 1.48438,-0.67957 1.35144,0.597284 c 4.60701,2.036116 4.37192,1.972355 7.30457,1.981156 2.66184,0.008 2.86324,-0.03231 4.81165,-0.96274 8.92987,-4.264304 9.65953,-16.319013 1.30864,-21.619932 -2.44511,-1.552085 -6.03382,-2.031507 -9.32134,-1.245251 -1.68345,0.402622 -1.87364,0.339386 -3.65376,-1.214884 -5.524701,-4.823763 -18.606613,-5.278569 -25.303985,-0.879719 -2.34141,1.537843 -2.923572,1.53428 -5.258623,-0.03218 -4.15625,-2.788213 -9.113466,-3.687792 -13.660004,-2.478861 -3.950567,1.05046 -3.539107,1.150236 -6.219599,-1.508212 -5.80175,-5.754039 -13.959818,-7.446116 -22.166773,-4.597643 -4.008578,1.391298 -8.401663,5.257118 -10.43215,9.180067 -1.258169,2.43081 -1.403026,2.524541 -4.653695,3.011187 -5.532825,0.828299 -9.6992522,3.661056 -12.0607165,8.200089 -2.0950594,4.026969 -2.343307,7.386828 -1.0960321,14.834034 1.3609816,8.126133 1.469426,9.220483 1.4666506,14.800513 -0.00311,6.25417 -0.2590881,7.79336 -2.5116725,15.10274 -1.5507103,5.03188 -1.8430566,6.75638 -1.5315334,9.03429 0.5182595,3.78959 3.6125035,5.72272 6.936778,4.33375 z"
         id="path3008" /></g></g></svg>
