<?xml version="1.0" encoding="UTF-8" standalone="no"?>
<!-- Created with Inkscape (http://www.inkscape.org/) -->

<svg
   width="367.98288mm"
   height="367.98288mm"
   viewBox="0 0 367.98288 367.98288"
   version="1.1"
   id="svg1"
   xml:space="preserve"
   sodipodi:docname="hero_header_light.svg"
   inkscape:version="1.4.4 (dcaf3e7d9e, 2026-05-05)"
   inkscape:export-filename="hero_header_light.png"
   inkscape:export-xdpi="96"
   inkscape:export-ydpi="96"
   xmlns:inkscape="http://www.inkscape.org/namespaces/inkscape"
   xmlns:sodipodi="http://sodipodi.sourceforge.net/DTD/sodipodi-0.dtd"
   xmlns="http://www.w3.org/2000/svg"
   xmlns:svg="http://www.w3.org/2000/svg"><sodipodi:namedview
     id="namedview1"
     pagecolor="#ffffff"
     bordercolor="#000000"
     borderopacity="0.25"
     inkscape:showpageshadow="2"
     inkscape:pageopacity="0.0"
     inkscape:pagecheckerboard="0"
     inkscape:deskcolor="#d1d1d1"
     inkscape:document-units="mm"
     inkscape:zoom="0.4420802"
     inkscape:cx="996.42554"
     inkscape:cy="792.84257"
     inkscape:window-width="2560"
     inkscape:window-height="1412"
     inkscape:window-x="0"
     inkscape:window-y="0"
     inkscape:window-maximized="1"
     inkscape:current-layer="layer1" /><defs
     id="defs1" /><g
     inkscape:label="Layer 1"
     inkscape:groupmode="layer"
     id="layer1"
     transform="translate(106.60455,59.494205)"><rect
       style="fill:#fffcf8;fill-opacity:1;stroke-width:0.902999;stroke-dasharray:0.902999;paint-order:stroke markers fill"
       id="rect1"
       width="142.61865"
       height="153.19867"
       x="1.1647907"
       y="7.9151411" /><path
       style="fill:#2d6a4f;fill-opacity:1;stroke-width:1.01522"
       d="m 8.6613358,189.57559 c -6.9492888,-0.53215 -14.6397778,-3.51267 -20.2757388,-7.85804 -8.223209,-6.34016 -13.995579,-15.86384 -16.228848,-26.77554 l -0.614837,-3.00408 V 88.579116 c 0,-68.809564 -0.09776,-64.2205 1.491899,-70.03363 1.955757,-7.151943 5.318406,-12.7805596 10.895553,-18.2376995 5.266444,-5.1531311 12.226898,-8.7935158 19.3159704,-10.1024577 2.4898852,-0.4597338 6.4284028,-0.4878198 68.4265546,-0.4878198 62.603661,0 65.899111,0.02405 68.152761,0.4976668 10.57641,2.2225991 19.67786,8.3720343 25.36931,17.1408707 2.75524,4.2449965 4.68291,9.1308125 5.75273,14.5806145 l 0.59097,3.010536 v 63.631919 c 0,71.357784 0.16704,65.231484 -1.96123,71.931224 -3.43334,10.80799 -11.17875,20.0336 -20.97767,24.98657 -4.14476,2.09502 -8.80387,3.42572 -13.95995,3.98714 -2.24165,0.24408 -122.841075,0.33171 -125.9774742,0.0916 z M 79.465647,153.03867 c 8.771422,-0.98784 17.216791,-2.78882 21.282993,-4.53862 2.70658,-1.16473 5.07631,-2.84818 6.05541,-4.30173 1.23542,-1.83407 1.11897,-3.93394 -0.60554,-10.91806 -1.33771,-5.41759 -1.37013,-5.64171 -1.37013,-9.46825 v -3.9193 l 7.59562,-0.10376 c 7.3985,-0.1011 7.65045,-0.12271 9.70916,-0.83422 5.99759,-2.07283 10.0116,-6.53591 11.40627,-12.68243 0.437,-1.92596 0.48253,-3.56938 0.48253,-17.420089 0,-17.117988 0.008,-17.024874 -1.90961,-21.113598 -1.39517,-2.974144 -4.70242,-6.419456 -7.47663,-7.788753 -3.28731,-1.622545 -4.53562,-1.80357 -12.61845,-1.829876 l -7.18889,-0.0234 v -1.51523 c 0,-1.337159 -0.0543,-1.491739 -0.46234,-1.315344 -1.43698,0.621261 -3.58738,1.190379 -5.151798,1.363466 l -1.783324,0.197305 v 37.340333 c 0,35.506296 -0.02313,37.362036 -0.47199,37.781876 -1.965974,1.83914 -11.389431,4.0069 -21.061844,4.84505 -5.751412,0.4984 -18.480402,0.21108 -23.907738,-0.53962 -7.628906,-1.05522 -14.833894,-2.92615 -16.304987,-4.23395 L 34.948756,131.36652 34.790857,99.458525 C 34.651108,71.218531 34.583406,67.346473 34.201922,65.775397 33.953389,64.751851 33.768559,62.872868 33.765384,61.337549 l -0.0055,-2.662709 h -1.659693 c -1.471292,0 -3.534941,-0.405797 -4.680992,-0.920474 -0.351108,-0.157677 -0.396292,3.862503 -0.396292,35.259564 0,39.35417 0.166632,35.27408 -1.776306,43.49394 -0.931698,3.94168 -1.000772,5.20781 -0.360209,6.6027 1.943201,4.23148 9.290712,7.32378 21.932117,9.23037 2.987498,0.45058 4.981299,0.66537 11.247333,1.21168 2.87057,0.25027 17.797032,-0.10822 21.399811,-0.51395 z m 29.122133,-44.62735 c -1.24364,-0.22853 -2.25105,-0.89824 -3.08259,-2.04925 -0.53376,-0.73884 -0.54618,-1.07819 -0.61694,-16.884088 -0.0717,-16.010074 -0.068,-16.139086 0.49434,-17.339918 0.34383,-0.73418 0.98806,-1.498027 1.63862,-1.942836 1.0664,-0.729175 1.09761,-0.733004 5.97842,-0.733004 4.53461,0 4.98785,0.04511 5.98123,0.594702 1.36243,0.753845 2.91668,2.524173 3.64441,4.151098 0.55306,1.236401 0.56451,1.540399 0.55726,14.780734 -0.007,12.015112 -0.0569,13.647922 -0.45211,14.683392 -0.72477,1.89879 -1.71675,2.99847 -3.54323,3.92794 -1.64068,0.83492 -1.82636,0.86621 -5.58415,0.94111 -2.13788,0.0426 -4.39474,-0.0158 -5.01526,-0.12988 z m -31.858835,23.03561 c 4.994188,-0.54215 11.083085,-1.75186 14.559436,-2.89262 l 0.858636,-0.28175 V 91.96773 55.662899 l -1.613302,0.841835 c -4.539613,2.368815 -11.910844,2.583326 -17.289382,0.503141 -1.378281,-0.533058 -1.385244,-0.533005 -2.287857,0.0175 -1.795538,1.095093 -3.970767,1.701368 -6.486202,1.807817 l -2.446101,0.103517 -0.121624,2.804876 c -0.21804,5.028488 -1.325171,7.966115 -4.100908,10.881237 -2.568246,2.697207 -6.368592,4.340132 -10.039418,4.340132 -1.796041,0 -4.659881,-0.707871 -6.0028,-1.483731 -0.658362,-0.38037 -1.241491,-0.691573 -1.295844,-0.691573 -0.05434,0 -0.09882,12.038698 -0.09882,26.75266 v 26.75267 l 1.783318,0.5694 c 3.355681,1.07142 10.440659,2.31472 16.049857,2.81647 3.297387,0.29496 15.030046,0.14811 18.53101,-0.23192 z m -7.488036,-16.48654 c -2.98484,-1.93855 -1.634055,-6.58164 1.914756,-6.58164 1.956594,0 3.290273,1.48545 3.290273,3.66469 0,1.04462 -0.14905,1.42722 -0.875021,2.24608 -0.730357,0.82382 -1.090704,1.00627 -2.179611,1.10359 -0.990982,0.0886 -1.507908,-0.0155 -2.150397,-0.43272 z m -13.730086,-14.0809 c -0.794738,-0.50406 -1.224046,-1.029413 -1.539937,-1.884432 -1.412779,-3.82397 3.327994,-6.968844 6.358713,-4.21817 1.284248,1.165582 1.643392,2.581189 1.057315,4.167521 -0.589031,1.594341 -1.68301,2.402551 -3.428967,2.533281 -1.088581,0.0815 -1.555386,-0.0326 -2.447124,-0.5982 z M 73.990214,88.443724 c -1.975282,-0.469416 -3.080427,-1.841517 -3.080427,-3.824536 0,-2.480087 1.601141,-3.920716 4.167785,-3.749952 1.428957,0.09507 1.639754,0.196002 2.575903,1.233417 0.889736,0.985993 1.019461,1.296443 1.0186,2.437686 -0.002,2.689166 -2.1734,4.499491 -4.681861,3.903385 z M 50.668371,71.625844 c 2.581268,-0.872896 4.866489,-3.376352 5.686027,-6.229029 0.286564,-0.997488 0.390462,-2.785434 0.390462,-6.719342 0,-6.089323 0.09446,-6.454275 1.606574,-6.206282 0.496804,0.08148 1.616608,0.417458 2.488452,0.74662 1.280682,0.48352 1.991155,0.576736 3.698732,0.485289 2.137073,-0.114448 3.515415,-0.61046 6.000575,-2.159374 l 0.980868,-0.611339 2.057378,0.99472 c 3.191542,1.54308 4.985121,1.919112 8.393036,1.759642 3.47626,-0.162666 5.040562,-0.674708 8.221449,-2.691111 l 2.225649,-1.410868 1.856437,0.884524 c 2.703104,1.287932 4.748072,1.589834 6.9552,1.026814 4.5284,-1.155153 6.98656,-4.892178 6.71154,-10.203235 -0.20691,-3.996058 -1.55598,-7.027182 -4.69754,-10.554585 -4.249864,-4.771841 -10.493307,-7.082909 -15.486007,-5.732287 l -1.879959,0.508566 -0.741032,-1.376074 C 84.100735,22.215638 80.742088,18.834177 78.540963,17.49843 72.867514,14.055522 66.066031,13.773519 60.047301,16.731631 c -2.733284,1.343365 -4.958181,3.004065 -6.968735,5.201572 l -1.407158,1.538004 -1.641943,-0.564821 c -7.602889,-2.615344 -15.056213,1.63536 -16.977253,9.682276 l -0.417774,1.749993 -1.484793,0.186764 c -4.59775,0.578311 -7.650783,3.484318 -8.495005,8.085899 -0.535378,2.918167 0.870373,7.008177 3.029849,8.815303 1.502856,1.257644 2.427394,1.693973 4.354936,2.055283 1.970307,0.369325 3.238952,0.199388 5.547497,-0.743094 1.28891,-0.526208 1.858516,-0.632646 2.377756,-0.444316 l 0.682811,0.247659 0.145586,6.138702 c 0.167499,7.06262 0.439533,8.22235 2.478586,10.566695 2.395668,2.754349 5.763791,3.606818 9.39671,2.378294 z"
       id="path1" /><path
       style="font-weight:bold;font-size:50.8px;font-family:Manrope;-inkscape-font-specification:'Manrope Bold';stroke-width:1.303;paint-order:stroke markers fill;fill:#ffffff;fill-opacity:1"
       d="m -34.313821,259.21198 q -3.556,0 -6.6802,-1.2446 -3.098799,-1.27 -5.460999,-3.7084 -2.3368,-2.4384 -3.6576,-5.969 -1.3208,-3.556 -1.3208,-8.128 0,-5.9944 2.2352,-10.2362 2.2352,-4.2672 6.1214,-6.5278 3.886199,-2.286 8.762999,-2.286 6.7564,0 10.6934,3.1496 3.9624,3.1242 5.3594,8.7884 l -6.2484,0.9906 q -1.0414,-3.2512 -3.4036,-5.1816 -2.3622,-1.9558 -6.0198,-1.9558 -3.683,-0.0508 -6.1214,1.6002 -2.4384,1.651 -3.682999,4.6482 -1.2192,2.9972 -1.2192,7.0104 0,4.0132 1.2192,6.985 1.219199,2.9464 3.657599,4.5974 2.4638,1.651 6.1468,1.7018 2.7686,0.0254 4.8514,-0.9906 2.0828,-1.0414 3.4036,-3.1242 1.3208,-2.1082 1.778,-5.2578 h -6.4516 v -4.8006 h 12.954 q 0.0508,0.4064 0.0762,1.1938 0.0254,0.7874 0.0254,0.9398 0,5.1816 -2.0574,9.2202 -2.032,4.0132 -5.842,6.2992 -3.81,2.286 -9.1186,2.286 z m 22.606016,-0.762 v -37.338 h 6.1214 v 37.338 z m 21.4122202,0.762 q -2.9718,0 -5.0291999,-1.1176 -2.0574,-1.143 -3.1242,-3.0226 -1.04139997,-1.8796 -1.04139997,-4.1402 0,-1.9812 0.66039997,-3.556 0.6604,-1.6002 2.032,-2.7432 1.3716,-1.1684 3.5559999,-1.905 1.651,-0.5334 3.8607998,-0.9652 2.2352,-0.4318 4.826,-0.7874 2.6162,-0.381 5.461,-0.8128 l -2.1844,1.2446 q 0.0254,-2.8448 -1.27,-4.191 -1.2954,-1.3462 -4.3688,-1.3462 -1.8542,0 -3.5813998,0.8636 -1.7272,0.8636 -2.413,2.9718 l -5.5879999,-1.7526 q 1.016,-3.4798 3.8608,-5.588 2.8701999,-2.1082 7.7215997,-2.1082 3.6576,0 6.4262,1.1938 2.794,1.1938 4.1402,3.9116 0.7366,1.4478 0.889,2.9718 0.1524,1.4986 0.1524,3.2766 v 16.8402 h -5.3594 v -5.9436 l 0.889,0.9652 q -1.8542,2.9718 -4.3434,4.3688 -2.4638,1.3716 -6.1721998,1.3716 z m 1.2191998,-4.8768 q 2.0828,0 3.556,-0.7366 1.4732,-0.7366 2.3368,-1.8034 0.889,-1.0668 1.1938,-2.0066 0.4826,-1.1684 0.5334,-2.667 0.0762,-1.524 0.0762,-2.4638 l 1.8796,0.5588 q -2.7686,0.4318 -4.7498,0.762 -1.9812,0.3302 -3.4036,0.635 -1.4224,0.2794 -2.5145998,0.635 -1.0668,0.381 -1.8034,0.889 -0.7366,0.508 -1.143,1.1684 -0.381,0.6604 -0.381,1.5494 0,1.016 0.508,1.8034 0.508,0.762 1.4732,1.2192 0.9906,0.4572 2.4383998,0.4572 z m 30.962611,4.8768 q -5.08,0 -8.255,-2.286 -3.175,-2.286 -3.8608,-6.4262 l 6.2484,-0.9652 q 0.4826,2.032 2.1336,3.2004 1.651,1.1684 4.1656,1.1684 2.2098,0 3.4036,-0.8636 1.2192,-0.889 1.2192,-2.413 0,-0.9398 -0.4572,-1.4986 -0.4318,-0.5842 -1.9304,-1.1176 -1.4986,-0.5334 -4.5974,-1.3462 -3.4544,-0.9144 -5.4864,-1.9558 -2.032,-1.0668 -2.921,-2.5146 -0.889,-1.4478 -0.889,-3.5052 0,-2.5654 1.3462,-4.4704 1.3462,-1.905 3.7592,-2.921 2.413,-1.0414 5.6896,-1.0414 3.2004,0 5.6642,0.9906 2.4892,0.9906 4.0132,2.8194 1.524,1.8288 1.8796,4.2926 l -6.2484,1.1176 q -0.2286,-1.7526 -1.6002,-2.7686 -1.3462,-1.016 -3.6068,-1.143 -2.159,-0.127 -3.4798,0.6604 -1.3208,0.762 -1.3208,2.159 0,0.7874 0.5334,1.3462 0.5334,0.5588 2.1336,1.1176 1.6256,0.5588 4.826,1.3716 3.2766,0.8382 5.2324,1.9304 1.9812,1.0668 2.8448,2.5654 0.889,1.4986 0.889,3.6322 0,4.1402 -3.0226,6.5024 -2.9972,2.3622 -8.3058,2.3622 z m 27.508202,0 q -5.08,0 -8.255,-2.286 -3.175,-2.286 -3.8608,-6.4262 l 6.2484,-0.9652 q 0.4826,2.032 2.1336,3.2004 1.651,1.1684 4.1656,1.1684 2.2098,0 3.4036,-0.8636 1.2192,-0.889 1.2192,-2.413 0,-0.9398 -0.4572,-1.4986 -0.4318,-0.5842 -1.9304,-1.1176 -1.4986,-0.5334 -4.5974,-1.3462 -3.4544,-0.9144 -5.4864,-1.9558 -2.032,-1.0668 -2.921,-2.5146 -0.889,-1.4478 -0.889,-3.5052 0,-2.5654 1.3462,-4.4704 1.3462,-1.905 3.7592,-2.921 2.413,-1.0414 5.6896,-1.0414 3.2004,0 5.6642,0.9906 2.489199,0.9906 4.013199,2.8194 1.524,1.8288 1.8796,4.2926 l -6.248399,1.1176 q -0.2286,-1.7526 -1.6002,-2.7686 -1.3462,-1.016 -3.6068,-1.143 -2.159,-0.127 -3.4798,0.6604 -1.3208,0.762 -1.3208,2.159 0,0.7874 0.5334,1.3462 0.5334,0.5588 2.1336,1.1176 1.6256,0.5588 4.826,1.3716 3.2766,0.8382 5.232399,1.9304 1.9812,1.0668 2.8448,2.5654 0.889,1.4986 0.889,3.6322 0,4.1402 -3.0226,6.5024 -2.997199,2.3622 -8.305799,2.3622 z m 35.864852,-0.762 v -30.8356 H 93.422879 v -5.7404 h 29.794201 v 5.7404 h -11.8364 v 30.8356 z m 19.48186,0 v -27.432 h 5.4102 v 6.6802 l -0.6604,-0.8636 q 0.508,-1.3716 1.3462,-2.4892 0.8636,-1.143 2.0574,-1.8796 1.016,-0.6858 2.2352,-1.0668 1.2446,-0.4064 2.54,-0.4826 1.2954,-0.1016 2.5146,0.1016 v 5.715 q -1.2192,-0.3556 -2.8194,-0.2286 -1.5748,0.127 -2.8448,0.889 -1.27,0.6858 -2.0828,1.7526 -0.7874,1.0668 -1.1684,2.4384 -0.381,1.3462 -0.381,2.921 v 13.9446 z m 27.30497,0.762 q -2.9718,0 -5.0292,-1.1176 -2.0574,-1.143 -3.1242,-3.0226 -1.0414,-1.8796 -1.0414,-4.1402 0,-1.9812 0.6604,-3.556 0.6604,-1.6002 2.032,-2.7432 1.3716,-1.1684 3.556,-1.905 1.651,-0.5334 3.8608,-0.9652 2.2352,-0.4318 4.826,-0.7874 2.6162,-0.381 5.461,-0.8128 l -2.1844,1.2446 q 0.0254,-2.8448 -1.27,-4.191 -1.2954,-1.3462 -4.3688,-1.3462 -1.8542,0 -3.5814,0.8636 -1.7272,0.8636 -2.413,2.9718 l -5.588,-1.7526 q 1.016,-3.4798 3.8608,-5.588 2.8702,-2.1082 7.7216,-2.1082 3.6576,0 6.4262,1.1938 2.794,1.1938 4.1402,3.9116 0.7366,1.4478 0.889,2.9718 0.1524,1.4986 0.1524,3.2766 v 16.8402 h -5.3594 v -5.9436 l 0.889,0.9652 q -1.8542,2.9718 -4.3434,4.3688 -2.4638,1.3716 -6.1722,1.3716 z m 1.2192,-4.8768 q 2.0828,0 3.556,-0.7366 1.4732,-0.7366 2.3368,-1.8034 0.889,-1.0668 1.1938,-2.0066 0.4826,-1.1684 0.5334,-2.667 0.0762,-1.524 0.0762,-2.4638 l 1.8796,0.5588 q -2.7686,0.4318 -4.7498,0.762 -1.9812,0.3302 -3.4036,0.635 -1.4224,0.2794 -2.5146,0.635 -1.0668,0.381 -1.8034,0.889 -0.7366,0.508 -1.143,1.1684 -0.381,0.6604 -0.381,1.5494 0,1.016 0.508,1.8034 0.508,0.762 1.4732,1.2192 0.9906,0.4572 2.4384,0.4572 z m 20.87881,-27.4828 v -5.6134 h 6.1214 v 5.6134 z m 0,31.5976 v -27.432 h 6.1214 v 27.432 z m 14.24942,0 v -37.338 h 6.1214 v 37.338 z"
       id="text1"
       aria-label="Glass Trail" /></g></svg>
