<?xml version="1.0" encoding="UTF-8" standalone="no"?>
<!-- Created with Inkscape (http://www.inkscape.org/) -->

<svg
   width="960"
   height="960"
   viewBox="0 0 254 254"
   version="1.1"
   id="svg1"
   xml:space="preserve"
   sodipodi:docname="splash.svg"
   inkscape:version="1.4.3 (0d15f75042, 2025-12-25)"
   inkscape:export-filename="splash.png"
   inkscape:export-xdpi="96"
   inkscape:export-ydpi="96"
   xmlns:inkscape="http://www.inkscape.org/namespaces/inkscape"
   xmlns:sodipodi="http://sodipodi.sourceforge.net/DTD/sodipodi-0.dtd"
   xmlns="http://www.w3.org/2000/svg"
   xmlns:svg="http://www.w3.org/2000/svg"><sodipodi:namedview
     id="namedview1"
     pagecolor="#ffffff"
     bordercolor="#000000"
     borderopacity="0.25"
     inkscape:showpageshadow="2"
     inkscape:pageopacity="0.0"
     inkscape:pagecheckerboard="0"
     inkscape:deskcolor="#d1d1d1"
     inkscape:document-units="mm"
     inkscape:zoom="0.48466689"
     inkscape:cx="791.26511"
     inkscape:cy="783.01202"
     inkscape:window-width="2520"
     inkscape:window-height="1412"
     inkscape:window-x="0"
     inkscape:window-y="0"
     inkscape:window-maximized="1"
     inkscape:current-layer="layer1" /><defs
     id="defs1" /><g
     inkscape:label="Layer 1"
     inkscape:groupmode="layer"
     id="layer1"
     transform="translate(28.459262,10.282491)"><rect
       style="fill:#fffcf8;fill-opacity:1;stroke-width:0.598966;stroke-dasharray:0.598966;paint-order:stroke markers fill"
       id="rect1"
       width="92.941063"
       height="103.43143"
       x="52.480103"
       y="63.501057" /><path
       style="fill:#2d6a4f;fill-opacity:1;stroke-width:0.671526"
       d="m 56.948636,182.76947 c -4.596665,-0.352 -9.683599,-2.32349 -13.411554,-5.19777 -5.43931,-4.19376 -9.257489,-10.49326 -10.7347,-17.7109 l -0.40669,-1.98707 v -41.90921 c 0,-45.514669 -0.06466,-42.479195 0.986824,-46.324337 1.293654,-4.730713 3.517909,-8.453807 7.206954,-12.063477 3.483531,-3.408581 8.087584,-5.816544 12.776706,-6.682355 1.646961,-0.304094 4.252122,-0.322671 45.261315,-0.322671 41.409709,0 43.589509,0.01591 45.080209,0.329186 6.99584,1.470156 13.01608,5.53775 16.78074,11.337969 1.82247,2.807888 3.09754,6.039651 3.80519,9.644468 l 0.3909,1.991344 v 42.089873 c 0,47.20019 0.11049,43.14789 -1.29728,47.5795 -2.27101,7.14903 -7.39426,13.25138 -13.87584,16.52758 -2.74159,1.38576 -5.8234,2.26596 -9.23393,2.63731 -1.48276,0.16145 -81.254247,0.21942 -83.328844,0.0606 z m 46.834094,-24.16765 c 5.80192,-0.65341 11.3882,-1.84469 14.07781,-3.00211 1.7903,-0.77042 3.35778,-1.88395 4.00541,-2.84541 0.81718,-1.21316 0.74014,-2.60213 -0.40054,-7.22184 -0.88485,-3.58351 -0.90628,-3.73175 -0.90628,-6.26286 v -2.59244 l 5.02418,-0.0687 c 4.89381,-0.067 5.06045,-0.0812 6.4222,-0.55181 3.96716,-1.3711 6.62225,-4.32322 7.54478,-8.3889 0.28905,-1.27394 0.31917,-2.36099 0.31917,-11.52266 0,-11.32284 0.005,-11.26125 -1.26312,-13.96577 -0.92286,-1.96727 -3.11047,-4.24621 -4.94548,-5.151936 -2.17443,-1.073253 -3.00013,-1.192988 -8.34659,-1.210388 l -4.75514,-0.0155 v -1.002267 c 0,-0.884475 -0.0359,-0.986723 -0.30582,-0.870042 -0.9505,0.41094 -2.37291,0.787385 -3.4077,0.901875 l -1.1796,0.130513 v 24.699105 c 0,23.48594 -0.0153,24.71343 -0.3122,24.99114 -1.30041,1.21651 -7.53364,2.65039 -13.93154,3.20479 -3.804311,0.32968 -12.224008,0.13963 -15.813959,-0.35693 -5.046209,-0.69798 -9.812005,-1.93553 -10.785069,-2.80058 l -0.486576,-0.43253 -0.104439,-21.10581 c -0.09244,-18.67956 -0.13722,-21.24078 -0.389556,-22.27998 -0.164396,-0.67703 -0.286651,-1.919902 -0.288756,-2.935445 l -0.0039,-1.761271 h -1.097776 c -0.973197,0 -2.33822,-0.268421 -3.096285,-0.608861 -0.232243,-0.104291 -0.262127,2.554887 -0.262127,23.322747 0,26.03114 0.110223,23.33233 -1.174954,28.76942 -0.61628,2.60726 -0.661968,3.44475 -0.238262,4.3674 1.28535,2.79897 6.145418,4.84438 14.507177,6.10552 1.976106,0.29804 3.294925,0.44011 7.439642,0.80148 1.898766,0.16554 11.772,-0.0716 14.15509,-0.33996 z m 19.26308,-29.51913 c -0.82261,-0.15116 -1.48898,-0.59415 -2.039,-1.35549 -0.35307,-0.48871 -0.36128,-0.71318 -0.40808,-11.16813 -0.0474,-10.58999 -0.045,-10.67532 0.32698,-11.46962 0.22743,-0.48563 0.65356,-0.99089 1.08388,-1.28511 0.70538,-0.48233 0.72602,-0.48486 3.95448,-0.48486 2.99945,0 3.29925,0.0298 3.95633,0.39338 0.90119,0.49864 1.92926,1.66964 2.41062,2.74579 0.36583,0.81782 0.3734,1.01889 0.36861,9.77682 -0.004,7.9475 -0.0376,9.02754 -0.29905,9.71246 -0.47941,1.25597 -1.13557,1.98336 -2.34371,2.59816 -1.08523,0.55227 -1.20806,0.57297 -3.69368,0.62251 -1.41412,0.0282 -2.90693,-0.0105 -3.31738,-0.0859 z m -21.0733,15.23709 c 3.30346,-0.35861 7.331,-1.15878 9.63046,-1.91334 l 0.56797,-0.18637 V 118.20594 94.191802 l -1.06714,0.55684 c -3.00276,1.566873 -7.87853,1.708766 -11.436205,0.332808 -0.911675,-0.352595 -0.916285,-0.352564 -1.513318,0.01159 -1.187681,0.72436 -2.626499,1.125383 -4.290361,1.195797 l -1.617992,0.06849 -0.08045,1.855308 c -0.144226,3.326135 -0.876546,5.269245 -2.712575,7.197495 -1.698787,1.7841 -4.212557,2.87081 -6.640658,2.87081 -1.188009,0 -3.082313,-0.46822 -3.970599,-0.98142 -0.435479,-0.2516 -0.8212,-0.45744 -0.857151,-0.45744 -0.03593,0 -0.06536,7.96309 -0.06536,17.69576 v 17.69578 l 1.179595,0.37663 c 2.219637,0.7087 6.906057,1.53109 10.616305,1.86297 2.181088,0.19511 9.94175,0.098 12.257489,-0.15339 z m -4.953017,-10.90515 c -1.974346,-1.28227 -1.080853,-4.35348 1.266532,-4.35348 1.294211,0 2.176385,0.98256 2.176385,2.42403 0,0.69098 -0.0986,0.94405 -0.578793,1.4857 -0.483105,0.54491 -0.721453,0.66561 -1.441719,0.72998 -0.655496,0.0586 -0.997423,-0.0102 -1.422405,-0.28623 z m -9.081877,-9.31394 c -0.525688,-0.3334 -0.809654,-0.6809 -1.018603,-1.24647 -0.934492,-2.52939 2.201329,-4.60959 4.206021,-2.79013 0.849479,0.77099 1.087037,1.70734 0.699375,2.75663 -0.389619,1.0546 -1.113243,1.58919 -2.268119,1.67567 -0.720055,0.0538 -1.028826,-0.0216 -1.618674,-0.3957 z m 12.223344,-8.22572 c -1.306565,-0.31051 -2.03757,-1.2181 -2.03757,-2.52979 0,-1.64046 1.059086,-2.59338 2.75681,-2.48043 0.94521,0.0628 1.08463,0.12965 1.70385,0.81586 0.58853,0.65219 0.67433,0.85754 0.67378,1.61242 -7.6e-4,1.77878 -1.43763,2.97622 -3.09687,2.58194 z M 84.734537,104.75063 c 1.707403,-0.57738 3.218984,-2.23332 3.76107,-4.12025 0.189554,-0.659791 0.258277,-1.842446 0.258277,-4.444563 0,-4.027833 0.06246,-4.269234 1.062679,-4.105198 0.328613,0.05393 1.069316,0.276131 1.646007,0.493863 0.847115,0.319822 1.317065,0.381485 2.446557,0.320996 1.413584,-0.07569 2.325298,-0.403793 3.969128,-1.428338 l 0.648804,-0.404372 1.360871,0.657961 c 2.11108,1.020685 3.29744,1.269421 5.55164,1.163932 2.2994,-0.107593 3.33412,-0.446288 5.43815,-1.780057 l 1.47217,-0.933231 1.22796,0.585074 c 1.78798,0.851914 3.14065,1.051611 4.60058,0.679197 2.99534,-0.764084 4.62132,-3.23597 4.4394,-6.749019 -0.13686,-2.643218 -1.02922,-4.648184 -3.10723,-6.981413 -2.81111,-3.156374 -6.94089,-4.685048 -10.24334,-3.791669 l -1.24353,0.336395 -0.49015,-0.910215 c -0.68493,-1.271888 -2.90653,-3.508584 -4.36249,-4.392125 -3.752747,-2.277339 -8.251641,-2.463873 -12.232784,-0.507205 -1.807953,0.88858 -3.279631,1.987063 -4.609525,3.440623 l -0.930774,1.017325 -1.086081,-0.373606 c -5.028989,-1.72994 -9.959057,1.081723 -11.229738,6.404422 l -0.276342,1.157548 -0.982128,0.123537 c -3.04122,0.382527 -5.060674,2.304728 -5.619095,5.348484 -0.354131,1.930246 0.575719,4.63562 2.00412,5.830956 0.99408,0.831875 1.605618,1.120491 2.880612,1.359481 1.303273,0.244297 2.142429,0.13189 3.669437,-0.491522 0.852555,-0.348063 1.229329,-0.418469 1.572782,-0.293898 l 0.45165,0.163817 0.0963,4.060495 c 0.110795,4.671625 0.290736,5.438735 1.639487,6.989425 1.584633,1.8219 3.812504,2.38577 6.215526,1.57315 z"
       id="path1" /></g></svg>
